G04 ---------------------------- Layer name :BOTTOM SILK LAYER*
G04 EasyEDA v5.6.10, Thu, 22 Nov 2018 09:31:26 GMT*
G04 a978b3f8f09b4219873cbd73095df268*
G04 Gerber Generator version 0.2*
G04 Scale: 100 percent, Rotated: No, Reflected: No *
G04 Dimensions in inches *
G04 leading zeros omitted , absolute positions ,2 integer and 4 decimal *
%FSLAX24Y24*%
%MOIN*%
G90*
G70D02*

%ADD10C,0.010000*%
%ADD13C,0.008000*%
%ADD31C,0.007992*%
%ADD32C,0.005000*%
%ADD33C,0.007000*%

%LPD*%
G54D10*
G01X19738Y5486D02*
G01X19738Y1550D01*
G01X24068Y1157D02*
G01X20131Y1157D01*
G01X24461Y1550D02*
G01X24461Y5486D01*
G01X20131Y5880D02*
G01X24068Y5880D01*
G01X20000Y5419D02*
G01X20000Y1619D01*
G01X20189Y1428D01*
G01X24010Y1428D01*
G01X24200Y1619D01*
G01X24200Y5419D01*
G01X24010Y5609D01*
G01X20189Y5609D01*
G01X20000Y5419D01*
G01X19739Y5488D02*
G01X20130Y5878D01*
G01X19739Y1548D02*
G01X20130Y1159D01*
G01X24069Y5878D02*
G01X24460Y5488D01*
G01X24069Y1159D02*
G01X24460Y1548D01*
G01X12138Y5486D02*
G01X12138Y1550D01*
G01X16468Y1157D02*
G01X12531Y1157D01*
G01X16861Y1550D02*
G01X16861Y5486D01*
G01X12531Y5880D02*
G01X16468Y5880D01*
G01X12400Y5419D02*
G01X12400Y1619D01*
G01X12589Y1428D01*
G01X16410Y1428D01*
G01X16600Y1619D01*
G01X16600Y5419D01*
G01X16410Y5609D01*
G01X12589Y5609D01*
G01X12400Y5419D01*
G01X12139Y5488D02*
G01X12530Y5878D01*
G01X12139Y1548D02*
G01X12530Y1159D01*
G01X16469Y5878D02*
G01X16860Y5488D01*
G01X16469Y1159D02*
G01X16860Y1548D01*
G01X4538Y5486D02*
G01X4538Y1550D01*
G01X8867Y1157D02*
G01X4930Y1157D01*
G01X9261Y1550D02*
G01X9261Y5486D01*
G01X4930Y5880D02*
G01X8867Y5880D01*
G01X4800Y5419D02*
G01X4800Y1619D01*
G01X4990Y1428D01*
G01X8809Y1428D01*
G01X9000Y1619D01*
G01X9000Y5419D01*
G01X8809Y5609D01*
G01X4990Y5609D01*
G01X4800Y5419D01*
G01X4540Y5488D02*
G01X4930Y5878D01*
G01X4540Y1548D02*
G01X4930Y1159D01*
G01X8869Y5878D02*
G01X9259Y5488D01*
G01X8869Y1159D02*
G01X9259Y1548D01*
G54D13*
G01X17300Y34300D02*
G01X18300Y34300D01*
G01X18300Y35300D01*
G01X17300Y35300D01*
G01X17300Y34550D01*
G54D31*
G01X17300Y34300D02*
G01X17300Y34550D01*
G54D13*
G01X16300Y34300D02*
G01X17300Y34300D01*
G01X17300Y35300D01*
G01X16300Y35300D01*
G01X16300Y34550D01*
G54D31*
G01X16300Y34300D02*
G01X16300Y34550D01*
G54D13*
G01X15300Y34300D02*
G01X16300Y34300D01*
G01X16300Y35300D01*
G01X15300Y35300D01*
G01X15300Y34550D01*
G54D31*
G01X15300Y34300D02*
G01X15300Y34550D01*
G54D13*
G01X14300Y34300D02*
G01X15300Y34300D01*
G01X15300Y35300D01*
G01X14300Y35300D01*
G01X14300Y34550D01*
G54D31*
G01X14300Y34300D02*
G01X14300Y34550D01*
G54D13*
G01X13300Y34300D02*
G01X14300Y34300D01*
G01X14300Y35300D01*
G01X13300Y35300D01*
G01X13300Y34550D01*
G54D31*
G01X13300Y34300D02*
G01X13300Y34550D01*
G54D13*
G01X11300Y34300D02*
G01X12300Y34300D01*
G01X12300Y35300D01*
G01X11300Y35300D01*
G01X11300Y34550D01*
G54D31*
G01X11300Y34300D02*
G01X11300Y34550D01*
G54D13*
G01X12300Y34300D02*
G01X13300Y34300D01*
G01X13300Y35300D01*
G01X12300Y35300D01*
G01X12300Y34550D01*
G54D31*
G01X12300Y34300D02*
G01X12300Y34550D01*
G54D13*
G01X10300Y34300D02*
G01X11300Y34300D01*
G01X11300Y35300D01*
G01X10300Y35300D01*
G01X10300Y34550D01*
G54D31*
G01X10300Y34300D02*
G01X10300Y34550D01*
G54D10*
G01X10900Y36900D02*
G01X10200Y36900D01*
G01X10200Y37900D01*
G01X10900Y37900D01*
G01X11500Y37900D02*
G01X12200Y37900D01*
G01X12200Y36900D01*
G01X11500Y36900D01*
G54D33*
G01X26114Y900D02*
G01X26114Y471D01*
G01X26114Y900D02*
G01X25971Y900D01*
G01X25909Y880D01*
G01X25869Y838D01*
G01X25848Y798D01*
G01X25828Y736D01*
G01X25828Y634D01*
G01X25848Y573D01*
G01X25869Y532D01*
G01X25909Y490D01*
G01X25971Y471D01*
G01X26114Y471D01*
G01X25570Y900D02*
G01X25611Y880D01*
G01X25652Y838D01*
G01X25672Y798D01*
G01X25693Y736D01*
G01X25693Y634D01*
G01X25672Y573D01*
G01X25652Y532D01*
G01X25611Y490D01*
G01X25570Y471D01*
G01X25488Y471D01*
G01X25447Y490D01*
G01X25406Y532D01*
G01X25386Y573D01*
G01X25365Y634D01*
G01X25365Y736D01*
G01X25386Y798D01*
G01X25406Y838D01*
G01X25447Y880D01*
G01X25488Y900D01*
G01X25570Y900D01*
G01X25230Y900D02*
G01X25128Y471D01*
G01X25026Y900D02*
G01X25128Y471D01*
G01X25026Y900D02*
G01X24924Y471D01*
G01X24821Y900D02*
G01X24924Y471D01*
G01X24686Y900D02*
G01X24686Y471D01*
G01X24686Y900D02*
G01X24400Y471D01*
G01X24400Y900D02*
G01X24400Y471D01*
G01X18371Y900D02*
G01X18371Y471D01*
G01X18371Y900D02*
G01X18206Y471D01*
G01X18043Y900D02*
G01X18206Y471D01*
G01X18043Y900D02*
G01X18043Y471D01*
G01X17909Y900D02*
G01X17909Y471D01*
G01X17909Y900D02*
G01X17643Y900D01*
G01X17909Y696D02*
G01X17744Y696D01*
G01X17909Y471D02*
G01X17643Y471D01*
G01X17507Y900D02*
G01X17507Y471D01*
G01X17507Y900D02*
G01X17221Y471D01*
G01X17221Y900D02*
G01X17221Y471D01*
G01X17085Y900D02*
G01X17085Y594D01*
G01X17065Y532D01*
G01X17025Y490D01*
G01X16964Y471D01*
G01X16922Y471D01*
G01X16860Y490D01*
G01X16821Y532D01*
G01X16800Y594D01*
G01X16800Y900D01*
G01X9908Y900D02*
G01X9908Y594D01*
G01X9888Y532D01*
G01X9847Y490D01*
G01X9785Y471D01*
G01X9744Y471D01*
G01X9683Y490D01*
G01X9642Y532D01*
G01X9622Y594D01*
G01X9622Y900D01*
G01X9487Y900D02*
G01X9487Y471D01*
G01X9487Y900D02*
G01X9303Y900D01*
G01X9241Y880D01*
G01X9221Y859D01*
G01X9200Y819D01*
G01X9200Y757D01*
G01X9221Y715D01*
G01X9241Y696D01*
G01X9303Y675D01*
G01X9487Y675D01*
G54D32*
G01X17999Y35570D02*
G01X17570Y35570D01*
G01X17999Y35570D02*
G01X17999Y35754D01*
G01X17979Y35815D01*
G01X17959Y35836D01*
G01X17918Y35856D01*
G01X17877Y35856D01*
G01X17836Y35836D01*
G01X17815Y35815D01*
G01X17795Y35754D01*
G01X17795Y35570D01*
G01X17795Y35713D02*
G01X17570Y35856D01*
G01X17938Y36278D02*
G01X17979Y36237D01*
G01X17999Y36175D01*
G01X17999Y36094D01*
G01X17979Y36032D01*
G01X17938Y35991D01*
G01X17897Y35991D01*
G01X17856Y36012D01*
G01X17836Y36032D01*
G01X17815Y36073D01*
G01X17774Y36196D01*
G01X17754Y36237D01*
G01X17734Y36257D01*
G01X17693Y36278D01*
G01X17631Y36278D01*
G01X17590Y36237D01*
G01X17570Y36175D01*
G01X17570Y36094D01*
G01X17590Y36032D01*
G01X17631Y35991D01*
G01X17999Y36556D02*
G01X17570Y36556D01*
G01X17999Y36413D02*
G01X17999Y36699D01*
G01X16938Y35856D02*
G01X16979Y35815D01*
G01X16999Y35754D01*
G01X16999Y35672D01*
G01X16979Y35611D01*
G01X16938Y35570D01*
G01X16897Y35570D01*
G01X16856Y35590D01*
G01X16836Y35611D01*
G01X16815Y35652D01*
G01X16774Y35775D01*
G01X16754Y35815D01*
G01X16734Y35836D01*
G01X16693Y35856D01*
G01X16631Y35856D01*
G01X16590Y35815D01*
G01X16570Y35754D01*
G01X16570Y35672D01*
G01X16590Y35611D01*
G01X16631Y35570D01*
G01X16897Y36298D02*
G01X16938Y36278D01*
G01X16979Y36237D01*
G01X16999Y36196D01*
G01X16999Y36114D01*
G01X16979Y36073D01*
G01X16938Y36032D01*
G01X16897Y36012D01*
G01X16836Y35991D01*
G01X16734Y35991D01*
G01X16672Y36012D01*
G01X16631Y36032D01*
G01X16590Y36073D01*
G01X16570Y36114D01*
G01X16570Y36196D01*
G01X16590Y36237D01*
G01X16631Y36278D01*
G01X16672Y36298D01*
G01X16999Y36433D02*
G01X16570Y36433D01*
G01X16999Y36433D02*
G01X16999Y36699D01*
G01X16795Y36433D02*
G01X16795Y36597D01*
G01X16570Y36433D02*
G01X16570Y36699D01*
G01X16018Y35569D02*
G01X15589Y35569D01*
G01X16018Y35569D02*
G01X16018Y35712D01*
G01X15997Y35774D01*
G01X15956Y35814D01*
G01X15915Y35835D01*
G01X15855Y35855D01*
G01X15752Y35855D01*
G01X15690Y35835D01*
G01X15650Y35814D01*
G01X15609Y35774D01*
G01X15589Y35712D01*
G01X15589Y35569D01*
G01X16100Y36359D02*
G01X15446Y35990D01*
G01X15915Y36800D02*
G01X15956Y36780D01*
G01X15997Y36739D01*
G01X16018Y36698D01*
G01X16018Y36616D01*
G01X15997Y36575D01*
G01X15956Y36534D01*
G01X15915Y36514D01*
G01X15855Y36494D01*
G01X15752Y36494D01*
G01X15690Y36514D01*
G01X15650Y36534D01*
G01X15609Y36575D01*
G01X15589Y36616D01*
G01X15589Y36698D01*
G01X15609Y36739D01*
G01X15650Y36780D01*
G01X15690Y36800D01*
G01X14999Y35592D02*
G01X14570Y35592D01*
G01X14999Y35592D02*
G01X14999Y35735D01*
G01X14979Y35797D01*
G01X14938Y35837D01*
G01X14897Y35858D01*
G01X14836Y35878D01*
G01X14734Y35878D01*
G01X14672Y35858D01*
G01X14631Y35837D01*
G01X14590Y35797D01*
G01X14570Y35735D01*
G01X14570Y35592D01*
G01X14999Y36013D02*
G01X14570Y36013D01*
G01X14999Y36013D02*
G01X14570Y36300D01*
G01X14999Y36300D02*
G01X14570Y36300D01*
G01X14167Y35823D02*
G01X14208Y35782D01*
G01X14228Y35721D01*
G01X14228Y35639D01*
G01X14208Y35578D01*
G01X14167Y35537D01*
G01X14126Y35537D01*
G01X14085Y35557D01*
G01X14065Y35578D01*
G01X14044Y35619D01*
G01X14003Y35742D01*
G01X13983Y35782D01*
G01X13963Y35803D01*
G01X13922Y35823D01*
G01X13860Y35823D01*
G01X13819Y35782D01*
G01X13799Y35721D01*
G01X13799Y35639D01*
G01X13819Y35578D01*
G01X13860Y35537D01*
G01X14126Y36265D02*
G01X14167Y36245D01*
G01X14208Y36204D01*
G01X14228Y36163D01*
G01X14228Y36081D01*
G01X14208Y36040D01*
G01X14167Y35999D01*
G01X14126Y35979D01*
G01X14065Y35958D01*
G01X13963Y35958D01*
G01X13901Y35979D01*
G01X13860Y35999D01*
G01X13819Y36040D01*
G01X13799Y36081D01*
G01X13799Y36163D01*
G01X13819Y36204D01*
G01X13860Y36245D01*
G01X13901Y36265D01*
G01X14228Y36400D02*
G01X13799Y36400D01*
G01X13799Y36400D02*
G01X13799Y36646D01*
G01X14228Y36781D02*
G01X13799Y36781D01*
G01X14228Y37067D02*
G01X13942Y36781D01*
G01X14044Y36883D02*
G01X13799Y37067D01*
G01X11999Y35632D02*
G01X11570Y35632D01*
G01X11999Y35632D02*
G01X11999Y35817D01*
G01X11979Y35878D01*
G01X11959Y35898D01*
G01X11918Y35919D01*
G01X11877Y35919D01*
G01X11836Y35898D01*
G01X11815Y35878D01*
G01X11795Y35817D01*
G01X11795Y35632D02*
G01X11795Y35817D01*
G01X11774Y35878D01*
G01X11754Y35898D01*
G01X11713Y35919D01*
G01X11652Y35919D01*
G01X11611Y35898D01*
G01X11590Y35878D01*
G01X11570Y35817D01*
G01X11570Y35632D01*
G01X11999Y36054D02*
G01X11570Y36054D01*
G01X11570Y36054D02*
G01X11570Y36300D01*
G01X12999Y35589D02*
G01X12570Y35753D01*
G01X12999Y35916D02*
G01X12570Y35753D01*
G01X12897Y36358D02*
G01X12938Y36338D01*
G01X12979Y36297D01*
G01X12999Y36256D01*
G01X12999Y36174D01*
G01X12979Y36133D01*
G01X12938Y36092D01*
G01X12897Y36072D01*
G01X12836Y36051D01*
G01X12734Y36051D01*
G01X12672Y36072D01*
G01X12631Y36092D01*
G01X12590Y36133D01*
G01X12570Y36174D01*
G01X12570Y36256D01*
G01X12590Y36297D01*
G01X12631Y36338D01*
G01X12672Y36358D01*
G01X12897Y36800D02*
G01X12938Y36779D01*
G01X12979Y36739D01*
G01X12999Y36698D01*
G01X12999Y36616D01*
G01X12979Y36575D01*
G01X12938Y36534D01*
G01X12897Y36514D01*
G01X12836Y36493D01*
G01X12734Y36493D01*
G01X12672Y36514D01*
G01X12631Y36534D01*
G01X12590Y36575D01*
G01X12570Y36616D01*
G01X12570Y36698D01*
G01X12590Y36739D01*
G01X12631Y36779D01*
G01X12672Y36800D01*
G01X10797Y35757D02*
G01X10838Y35736D01*
G01X10879Y35694D01*
G01X10899Y35655D01*
G01X10899Y35573D01*
G01X10879Y35532D01*
G01X10838Y35490D01*
G01X10797Y35469D01*
G01X10736Y35450D01*
G01X10634Y35450D01*
G01X10572Y35469D01*
G01X10531Y35490D01*
G01X10490Y35532D01*
G01X10470Y35573D01*
G01X10470Y35655D01*
G01X10490Y35694D01*
G01X10531Y35736D01*
G01X10572Y35757D01*
G01X10634Y35757D01*
G01X10634Y35655D02*
G01X10634Y35757D01*
G01X10899Y35892D02*
G01X10470Y35892D01*
G01X10899Y35892D02*
G01X10470Y36178D01*
G01X10899Y36178D02*
G01X10470Y36178D01*
G01X10899Y36313D02*
G01X10470Y36313D01*
G01X10899Y36313D02*
G01X10899Y36455D01*
G01X10879Y36517D01*
G01X10838Y36559D01*
G01X10797Y36579D01*
G01X10736Y36600D01*
G01X10634Y36600D01*
G01X10572Y36579D01*
G01X10531Y36559D01*
G01X10490Y36517D01*
G01X10470Y36455D01*
G01X10470Y36313D01*
G54D33*
G01X13445Y37800D02*
G01X13445Y37371D01*
G01X13445Y37800D02*
G01X13261Y37800D01*
G01X13200Y37780D01*
G01X13179Y37759D01*
G01X13159Y37719D01*
G01X13159Y37678D01*
G01X13179Y37636D01*
G01X13200Y37615D01*
G01X13261Y37596D01*
G01X13445Y37596D01*
G01X13302Y37596D02*
G01X13159Y37371D01*
G01X13003Y37698D02*
G01X13003Y37719D01*
G01X12983Y37759D01*
G01X12962Y37780D01*
G01X12921Y37800D01*
G01X12840Y37800D01*
G01X12799Y37780D01*
G01X12778Y37759D01*
G01X12758Y37719D01*
G01X12758Y37678D01*
G01X12778Y37636D01*
G01X12819Y37575D01*
G01X13024Y37371D01*
G01X12737Y37371D01*
G01X12602Y37719D02*
G01X12561Y37738D01*
G01X12500Y37800D01*
G01X12500Y37371D01*
G54D10*
G75*
G01X20800Y5119D02*
G03X20800Y5119I-300J0D01*
G01*
G75*
G01X20800Y1919D02*
G03X20800Y1919I-300J0D01*
G01*
G75*
G01X24000Y5119D02*
G03X24000Y5119I-300J0D01*
G01*
G75*
G01X24000Y1919D02*
G03X24000Y1919I-300J0D01*
G01*
G75*
G01X23500Y3519D02*
G03X23500Y3519I-1400J0D01*
G01*
G75*
G01X13200Y5119D02*
G03X13200Y5119I-300J0D01*
G01*
G75*
G01X13200Y1919D02*
G03X13200Y1919I-300J0D01*
G01*
G75*
G01X16400Y5119D02*
G03X16400Y5119I-300J0D01*
G01*
G75*
G01X16400Y1919D02*
G03X16400Y1919I-300J0D01*
G01*
G75*
G01X15900Y3519D02*
G03X15900Y3519I-1400J0D01*
G01*
G75*
G01X5600Y5119D02*
G03X5600Y5119I-300J0D01*
G01*
G75*
G01X5600Y1919D02*
G03X5600Y1919I-300J0D01*
G01*
G75*
G01X8800Y5119D02*
G03X8800Y5119I-300J0D01*
G01*
G75*
G01X8800Y1919D02*
G03X8800Y1919I-300J0D01*
G01*
G75*
G01X8300Y3519D02*
G03X8300Y3519I-1400J0D01*
G01*
M00*
M02*
