G04 ---------------------------- Layer name :TOP SOLDER LAYER*
G04 EasyEDA v5.6.10, Thu, 22 Nov 2018 09:31:26 GMT*
G04 a978b3f8f09b4219873cbd73095df268*
G04 Gerber Generator version 0.2*
G04 Scale: 100 percent, Rotated: No, Reflected: No *
G04 Dimensions in inches *
G04 leading zeros omitted , absolute positions ,2 integer and 4 decimal *
%FSLAX24Y24*%
%MOIN*%
G90*
G70D02*

%ADD16R,0.078900X0.071000*%
%ADD17R,0.035559X0.057213*%
%ADD18R,0.071000X0.078900*%
%ADD19R,0.058000X0.065900*%
%ADD20R,0.057213X0.035559*%
%ADD21C,0.094614*%
%ADD22R,0.070000X0.070000*%
%ADD23C,0.070992*%
%ADD24C,0.055000*%
%ADD25C,0.078900*%
%ADD26C,0.068000*%
%ADD27C,0.082000*%
%ADD28C,0.047370*%

%LPD*%
G54D28*
G01X19546Y8550D02*
G01X19153Y8550D01*
G01X19546Y8050D02*
G01X19153Y8050D01*
G01X19546Y7550D02*
G01X19153Y7550D01*
G54D21*
G01X21100Y5980D03*
G01X21100Y1057D03*
G01X23100Y5980D03*
G01X23100Y1057D03*
G01X13500Y5980D03*
G01X13500Y1057D03*
G01X15500Y5980D03*
G01X15500Y1057D03*
G01X5900Y5980D03*
G01X5900Y1057D03*
G01X7900Y5980D03*
G01X7900Y1057D03*
G54D22*
G01X17800Y34800D03*
G01X16800Y34800D03*
G01X15800Y34800D03*
G01X14800Y34800D03*
G01X13800Y34800D03*
G01X11800Y34800D03*
G01X12800Y34800D03*
G01X10800Y34800D03*
G54D23*
G01X2400Y9113D03*
G01X2400Y10686D03*
G54D16*
G01X6799Y4050D03*
G01X6799Y2950D03*
G01X14499Y4150D03*
G01X14499Y3050D03*
G01X22099Y4150D03*
G01X22099Y3050D03*
G54D17*
G01X12400Y24892D03*
G01X12773Y23907D03*
G01X12026Y23907D03*
G54D18*
G01X26450Y21100D03*
G01X25350Y21100D03*
G01X26450Y13100D03*
G01X25350Y13100D03*
G01X26450Y16400D03*
G01X25350Y16400D03*
G01X22850Y19599D03*
G01X23950Y19599D03*
G01X26450Y19600D03*
G01X25350Y19600D03*
G01X26450Y18000D03*
G01X25350Y18000D03*
G01X22850Y21099D03*
G01X23950Y21099D03*
G01X26450Y14900D03*
G01X25350Y14900D03*
G01X22850Y17999D03*
G01X23950Y17999D03*
G01X22850Y16399D03*
G01X23950Y16399D03*
G01X22850Y14899D03*
G01X23950Y14899D03*
G01X22850Y13099D03*
G01X23950Y13099D03*
G54D24*
G01X25389Y11069D03*
G01X26389Y11069D03*
G54D25*
G01X18800Y31300D03*
G01X14580Y31300D03*
G01X14580Y27559D03*
G01X18800Y27559D03*
G54D18*
G01X21750Y7499D03*
G01X22850Y7499D03*
G54D16*
G01X21499Y10450D03*
G01X21499Y9350D03*
G54D24*
G01X25389Y8569D03*
G01X26389Y8569D03*
G54D18*
G01X16350Y8000D03*
G01X15250Y8000D03*
G54D16*
G01X16100Y10050D03*
G01X16100Y11150D03*
G01X13400Y20650D03*
G01X13400Y21750D03*
G01X11400Y20650D03*
G01X11400Y21750D03*
G54D18*
G01X11850Y8900D03*
G01X10750Y8900D03*
G54D22*
G01X27200Y31400D03*
G01X27200Y2400D03*
G54D26*
G01X18300Y14500D03*
G01X16300Y14500D03*
G01X24600Y33600D03*
G01X24600Y29600D03*
G54D22*
G01X1200Y2400D03*
G01X3000Y2400D03*
G54D18*
G01X14850Y19399D03*
G01X15950Y19399D03*
G54D19*
G01X23250Y23399D03*
G01X24869Y23399D03*
G54D24*
G01X14889Y17469D03*
G01X15889Y17469D03*
G54D27*
G01X1600Y31000D03*
G01X1600Y30000D03*
G01X1600Y29000D03*
G01X1600Y28000D03*
G01X1600Y27000D03*
G01X1600Y26000D03*
G01X1600Y25000D03*
G01X1600Y24000D03*
G01X1600Y23000D03*
G01X1600Y22000D03*
G01X1600Y21000D03*
G01X1600Y20000D03*
G01X7600Y20000D03*
G01X7600Y21000D03*
G01X7600Y22000D03*
G01X7600Y23000D03*
G01X7600Y24000D03*
G01X7600Y25000D03*
G01X7600Y26000D03*
G01X7600Y27000D03*
G01X7600Y28000D03*
G01X7600Y29000D03*
G01X7600Y30000D03*
G01X7600Y31000D03*
G01X5600Y20000D03*
G01X6600Y20000D03*
G01X4600Y20000D03*
G01X3600Y20000D03*
G01X2100Y32000D03*
G01X3100Y32000D03*
G01X4100Y32000D03*
G01X5100Y32000D03*
G01X6100Y32000D03*
G01X7100Y32000D03*
G01X2600Y20000D03*
G54D20*
G01X3692Y14526D03*
G01X2707Y14900D03*
G01X3692Y15273D03*
G54D16*
G01X6299Y15350D03*
G01X6299Y14250D03*
G01X6300Y12450D03*
G01X6300Y11350D03*
G54D26*
G01X1500Y4800D03*
G01X2500Y4800D03*
G54D16*
G01X27000Y27250D03*
G01X27000Y28350D03*
G01X27001Y24350D03*
G01X27001Y25450D03*
M00*
M02*
