;PTH Drill file created by EasyEDA 
M48
INCH,LZ
;Holesize 1 = 0.012 INCH
T01C0.012
;Holesize 2 = 0.028 INCH
T02C0.028
;Holesize 3 = 0.028 INCH
T03C0.028
;Holesize 4 = 0.035 INCH
T04C0.035
;Holesize 5 = 0.036 INCH
T05C0.036
;Holesize 6 = 0.039 INCH
T06C0.039
;Holesize 7 = 0.040 INCH
T07C0.040
;Holesize 8 = 0.059 INCH
T08C0.059
%
G05
G90
T01
X015250Y008688
X010319Y013619
X008915Y028998
X006115Y002921
X010152Y029611
X000844Y024930
X009019Y031644
X010515Y031215
X008494Y029361
X007057Y004996
X001400Y013600
X002800Y016800
X005300Y016800
T02
X019350Y008550
X019350Y008050
X019350Y007550
T03
X025389Y011069
X026389Y011069
X025389Y008569
X026389Y008569
X014889Y017469
X015889Y017469
T04
X017800Y034800
X016800Y034800
X015800Y034800
X014800Y034800
X013800Y034800
X011800Y034800
X012800Y034800
X010800Y034800
X027200Y031400
X027200Y002400
X001200Y002400
X003000Y002400
T05
X018300Y014500
X016300Y014500
X024600Y033600
X024600Y029600
X001500Y004800
X002500Y004800
T06
X002400Y009113
X002400Y010686
T07
X018800Y031300
X014580Y031300
X014580Y027559
X018800Y027559
X001600Y031000
X001600Y030000
X001600Y029000
X001600Y028000
X001600Y027000
X001600Y026000
X001600Y025000
X001600Y024000
X001600Y023000
X001600Y022000
X001600Y021000
X001600Y020000
X007600Y020000
X007600Y021000
X007600Y022000
X007600Y023000
X007600Y024000
X007600Y025000
X007600Y026000
X007600Y027000
X007600Y028000
X007600Y029000
X007600Y030000
X007600Y031000
X005600Y020000
X006600Y020000
X004600Y020000
X003600Y020000
X002100Y032000
X003100Y032000
X004100Y032000
X005100Y032000
X006100Y032000
X007100Y032000
X002600Y020000
T08
X021100Y005980
X021100Y001057
X023100Y005980
X023100Y001057
X013500Y005980
X013500Y001057
X015500Y005980
X015500Y001057
X005900Y005980
X005900Y001057
X007900Y005980
X007900Y001057
M30
