G04 ---------------------------- Layer name :BOTTOM LAYER*
G04 EasyEDA v5.6.10, Thu, 22 Nov 2018 09:31:26 GMT*
G04 a978b3f8f09b4219873cbd73095df268*
G04 Gerber Generator version 0.2*
G04 Scale: 100 percent, Rotated: No, Reflected: No *
G04 Dimensions in inches *
G04 leading zeros omitted , absolute positions ,2 integer and 4 decimal *
%FSLAX24Y24*%
%MOIN*%
G90*
G70D02*

%ADD11C,0.020000*%
%ADD12C,0.040000*%
%ADD14C,0.024000*%
%ADD15C,0.024400*%
%ADD18R,0.063000X0.070900*%
%ADD21C,0.086614*%
%ADD22R,0.062000X0.062000*%
%ADD23C,0.062992*%
%ADD24C,0.047000*%
%ADD25C,0.070900*%
%ADD26C,0.060000*%
%ADD27C,0.074000*%
%ADD28C,0.039370*%

%LPD*%

%LPD*%
G36*
G01X23330Y18416D02*
G01X23260Y18416D01*
G01X23237Y18416D01*
G01X23214Y18416D01*
G01X23190Y18417D01*
G01X23168Y18417D01*
G01X23144Y18418D01*
G01X23098Y18420D01*
G01X23075Y18421D01*
G01X23052Y18423D01*
G01X23006Y18426D01*
G01X22984Y18428D01*
G01X22960Y18430D01*
G01X22938Y18432D01*
G01X22892Y18436D01*
G01X22869Y18439D01*
G01X22847Y18442D01*
G01X22824Y18445D01*
G01X22801Y18448D01*
G01X22778Y18451D01*
G01X22756Y18455D01*
G01X22710Y18462D01*
G01X22688Y18466D01*
G01X22665Y18469D01*
G01X22621Y18478D01*
G01X22553Y18492D01*
G01X22509Y18502D01*
G01X22465Y18512D01*
G01X22443Y18517D01*
G01X22421Y18523D01*
G01X22398Y18529D01*
G01X22355Y18541D01*
G01X22333Y18547D01*
G01X22311Y18553D01*
G01X22289Y18560D01*
G01X22267Y18567D01*
G01X22246Y18573D01*
G01X22224Y18580D01*
G01X22202Y18587D01*
G01X22181Y18594D01*
G01X22159Y18602D01*
G01X22138Y18609D01*
G01X22116Y18617D01*
G01X22095Y18625D01*
G01X22073Y18633D01*
G01X22052Y18641D01*
G01X22031Y18649D01*
G01X22010Y18657D01*
G01X21989Y18666D01*
G01X21968Y18674D01*
G01X21947Y18683D01*
G01X21926Y18692D01*
G01X21905Y18701D01*
G01X21885Y18710D01*
G01X21864Y18719D01*
G01X21843Y18729D01*
G01X21822Y18738D01*
G01X21802Y18748D01*
G01X21781Y18758D01*
G01X21761Y18768D01*
G01X21720Y18788D01*
G01X21700Y18799D01*
G01X21680Y18809D01*
G01X21660Y18820D01*
G01X21640Y18831D01*
G01X21620Y18842D01*
G01X21600Y18853D01*
G01X21580Y18864D01*
G01X21561Y18876D01*
G01X21502Y18910D01*
G01X21463Y18934D01*
G01X21444Y18946D01*
G01X21406Y18971D01*
G01X21386Y18984D01*
G01X21368Y18996D01*
G01X21349Y19009D01*
G01X21311Y19035D01*
G01X21293Y19048D01*
G01X21274Y19061D01*
G01X21256Y19075D01*
G01X21237Y19088D01*
G01X21182Y19130D01*
G01X21147Y19158D01*
G01X21129Y19172D01*
G01X21111Y19187D01*
G01X21093Y19201D01*
G01X21076Y19216D01*
G01X21058Y19231D01*
G01X21023Y19261D01*
G01X21006Y19276D01*
G01X20989Y19291D01*
G01X20972Y19307D01*
G01X20938Y19338D01*
G01X20922Y19354D01*
G01X20905Y19369D01*
G01X20888Y19386D01*
G01X20856Y19418D01*
G01X20839Y19434D01*
G01X20823Y19451D01*
G01X20807Y19467D01*
G01X20791Y19484D01*
G01X20775Y19501D01*
G01X20760Y19518D01*
G01X20728Y19553D01*
G01X20713Y19570D01*
G01X20698Y19587D01*
G01X20682Y19605D01*
G01X20667Y19623D01*
G01X20652Y19640D01*
G01X20638Y19658D01*
G01X20623Y19676D01*
G01X20593Y19713D01*
G01X20579Y19731D01*
G01X20536Y19787D01*
G01X20523Y19805D01*
G01X20509Y19825D01*
G01X20495Y19844D01*
G01X20468Y19882D01*
G01X20455Y19901D01*
G01X20441Y19921D01*
G01X20415Y19960D01*
G01X20402Y19980D01*
G01X20389Y20000D01*
G01X20377Y20020D01*
G01X20352Y20060D01*
G01X20340Y20081D01*
G01X20328Y20101D01*
G01X20316Y20122D01*
G01X20304Y20142D01*
G01X20281Y20184D01*
G01X20269Y20205D01*
G01X20257Y20226D01*
G01X20246Y20248D01*
G01X20224Y20290D01*
G01X20214Y20312D01*
G01X20202Y20334D01*
G01X20191Y20357D01*
G01X20170Y20402D01*
G01X20160Y20424D01*
G01X20150Y20446D01*
G01X20130Y20491D01*
G01X20120Y20514D01*
G01X20111Y20536D01*
G01X20102Y20559D01*
G01X20093Y20581D01*
G01X20084Y20603D01*
G01X20067Y20648D01*
G01X20050Y20693D01*
G01X20042Y20716D01*
G01X20035Y20739D01*
G01X20027Y20761D01*
G01X20019Y20784D01*
G01X20005Y20830D01*
G01X19998Y20853D01*
G01X19991Y20877D01*
G01X19985Y20900D01*
G01X19972Y20947D01*
G01X19960Y20995D01*
G01X19954Y21019D01*
G01X19948Y21043D01*
G01X19942Y21067D01*
G01X19937Y21092D01*
G01X19931Y21117D01*
G01X19926Y21142D01*
G01X19921Y21167D01*
G01X19916Y21192D01*
G01X19906Y21243D01*
G01X19902Y21269D01*
G01X19897Y21295D01*
G01X19893Y21321D01*
G01X19889Y21348D01*
G01X19887Y21363D01*
G01X19885Y21379D01*
G01X19883Y21397D01*
G01X19881Y21415D01*
G01X19879Y21434D01*
G01X19878Y21455D01*
G01X19877Y21476D01*
G01X19875Y21498D01*
G01X19874Y21521D01*
G01X19873Y21545D01*
G01X19872Y21569D01*
G01X19872Y21594D01*
G01X19871Y21620D01*
G01X19871Y21646D01*
G01X19871Y21672D01*
G01X19871Y21755D01*
G01X19871Y21783D01*
G01X19872Y21840D01*
G01X19872Y21868D01*
G01X19873Y21897D01*
G01X19875Y21955D01*
G01X19876Y21983D01*
G01X19877Y22012D01*
G01X19878Y22040D01*
G01X19879Y22069D01*
G01X19881Y22097D01*
G01X19882Y22125D01*
G01X19884Y22152D01*
G01X19886Y22179D01*
G01X19888Y22205D01*
G01X19890Y22231D01*
G01X19892Y22257D01*
G01X19894Y22282D01*
G01X19896Y22306D01*
G01X19898Y22329D01*
G01X19901Y22352D01*
G01X19903Y22374D01*
G01X19906Y22395D01*
G01X19909Y22415D01*
G01X19912Y22434D01*
G01X19914Y22453D01*
G01X19918Y22470D01*
G01X19921Y22486D01*
G01X19924Y22501D01*
G01X19929Y22525D01*
G01X19935Y22549D01*
G01X19940Y22573D01*
G01X19946Y22597D01*
G01X19952Y22621D01*
G01X19965Y22669D01*
G01X19971Y22692D01*
G01X19978Y22716D01*
G01X19985Y22740D01*
G01X19999Y22786D01*
G01X20006Y22809D01*
G01X20013Y22833D01*
G01X20021Y22856D01*
G01X20028Y22879D01*
G01X20036Y22902D01*
G01X20044Y22925D01*
G01X20052Y22948D01*
G01X20061Y22971D01*
G01X20069Y22993D01*
G01X20078Y23016D01*
G01X20095Y23061D01*
G01X20104Y23083D01*
G01X20123Y23128D01*
G01X20132Y23150D01*
G01X20142Y23172D01*
G01X20151Y23194D01*
G01X20161Y23215D01*
G01X20171Y23237D01*
G01X20181Y23259D01*
G01X20192Y23280D01*
G01X20202Y23302D01*
G01X20213Y23323D01*
G01X20223Y23344D01*
G01X20234Y23366D01*
G01X20245Y23387D01*
G01X20256Y23408D01*
G01X20267Y23429D01*
G01X20290Y23471D01*
G01X20302Y23491D01*
G01X20313Y23512D01*
G01X20325Y23532D01*
G01X20337Y23553D01*
G01X20361Y23593D01*
G01X20386Y23633D01*
G01X20399Y23653D01*
G01X20412Y23673D01*
G01X20438Y23712D01*
G01X20451Y23732D01*
G01X20464Y23751D01*
G01X20477Y23770D01*
G01X20491Y23789D01*
G01X20505Y23808D01*
G01X20532Y23846D01*
G01X20546Y23865D01*
G01X20560Y23884D01*
G01X20575Y23902D01*
G01X20589Y23921D01*
G01X20604Y23939D01*
G01X20618Y23957D01*
G01X20633Y23976D01*
G01X20648Y23994D01*
G01X20663Y24011D01*
G01X20678Y24029D01*
G01X20693Y24047D01*
G01X20724Y24082D01*
G01X20739Y24100D01*
G01X20755Y24117D01*
G01X20771Y24134D01*
G01X20803Y24168D01*
G01X20819Y24185D01*
G01X20835Y24201D01*
G01X20868Y24234D01*
G01X20885Y24251D01*
G01X20902Y24267D01*
G01X20935Y24299D01*
G01X20952Y24315D01*
G01X20969Y24331D01*
G01X20986Y24346D01*
G01X21004Y24362D01*
G01X21021Y24378D01*
G01X21039Y24393D01*
G01X21056Y24408D01*
G01X21074Y24423D01*
G01X21092Y24438D01*
G01X21110Y24453D01*
G01X21147Y24482D01*
G01X21165Y24496D01*
G01X21183Y24511D01*
G01X21202Y24525D01*
G01X21239Y24553D01*
G01X21277Y24581D01*
G01X21296Y24594D01*
G01X21315Y24608D01*
G01X21353Y24634D01*
G01X21372Y24647D01*
G01X21392Y24660D01*
G01X21411Y24673D01*
G01X21431Y24686D01*
G01X21471Y24711D01*
G01X21491Y24723D01*
G01X21511Y24735D01*
G01X21551Y24759D01*
G01X21572Y24771D01*
G01X21592Y24782D01*
G01X21633Y24805D01*
G01X21654Y24816D01*
G01X21675Y24827D01*
G01X21696Y24838D01*
G01X21716Y24849D01*
G01X21738Y24860D01*
G01X21759Y24870D01*
G01X21780Y24880D01*
G01X21801Y24891D01*
G01X21844Y24911D01*
G01X21887Y24930D01*
G01X21909Y24940D01*
G01X21931Y24949D01*
G01X21975Y24967D01*
G01X22018Y24985D01*
G01X22041Y24994D01*
G01X22063Y25002D01*
G01X22085Y25011D01*
G01X22108Y25019D01*
G01X22153Y25035D01*
G01X22176Y25043D01*
G01X22198Y25050D01*
G01X22221Y25058D01*
G01X22244Y25065D01*
G01X22267Y25072D01*
G01X22290Y25079D01*
G01X22313Y25086D01*
G01X22360Y25099D01*
G01X22383Y25106D01*
G01X22406Y25112D01*
G01X22430Y25118D01*
G01X22453Y25124D01*
G01X22477Y25130D01*
G01X22501Y25135D01*
G01X22525Y25141D01*
G01X22548Y25146D01*
G01X22572Y25151D01*
G01X22596Y25156D01*
G01X22615Y25160D01*
G01X22634Y25163D01*
G01X22655Y25167D01*
G01X22676Y25170D01*
G01X22699Y25173D01*
G01X22722Y25177D01*
G01X22746Y25180D01*
G01X22771Y25182D01*
G01X22797Y25185D01*
G01X22823Y25188D01*
G01X22850Y25190D01*
G01X22877Y25193D01*
G01X22905Y25195D01*
G01X22933Y25198D01*
G01X22962Y25200D01*
G01X22991Y25202D01*
G01X23020Y25204D01*
G01X23049Y25205D01*
G01X23109Y25209D01*
G01X23138Y25210D01*
G01X23168Y25211D01*
G01X23197Y25212D01*
G01X23227Y25213D01*
G01X23256Y25214D01*
G01X23285Y25215D01*
G01X23314Y25215D01*
G01X23342Y25215D01*
G01X23370Y25216D01*
G01X23424Y25216D01*
G01X23450Y25215D01*
G01X23476Y25215D01*
G01X23501Y25215D01*
G01X23525Y25214D01*
G01X23548Y25213D01*
G01X23571Y25212D01*
G01X23593Y25211D01*
G01X23613Y25209D01*
G01X23633Y25208D01*
G01X23651Y25206D01*
G01X23668Y25204D01*
G01X23685Y25202D01*
G01X23700Y25200D01*
G01X23727Y25195D01*
G01X23755Y25190D01*
G01X23782Y25185D01*
G01X23836Y25175D01*
G01X23863Y25170D01*
G01X23889Y25164D01*
G01X23915Y25159D01*
G01X23942Y25153D01*
G01X23967Y25148D01*
G01X23993Y25142D01*
G01X24018Y25136D01*
G01X24043Y25130D01*
G01X24068Y25124D01*
G01X24093Y25118D01*
G01X24118Y25111D01*
G01X24142Y25105D01*
G01X24167Y25099D01*
G01X24191Y25092D01*
G01X24214Y25085D01*
G01X24238Y25078D01*
G01X24262Y25071D01*
G01X24285Y25064D01*
G01X24309Y25057D01*
G01X24355Y25042D01*
G01X24377Y25034D01*
G01X24400Y25027D01*
G01X24423Y25019D01*
G01X24445Y25011D01*
G01X24468Y25003D01*
G01X24490Y24994D01*
G01X24512Y24986D01*
G01X24534Y24977D01*
G01X24577Y24959D01*
G01X24599Y24951D01*
G01X24621Y24941D01*
G01X24664Y24923D01*
G01X24685Y24913D01*
G01X24706Y24903D01*
G01X24727Y24893D01*
G01X24769Y24873D01*
G01X24790Y24862D01*
G01X24811Y24852D01*
G01X24852Y24830D01*
G01X24873Y24819D01*
G01X24935Y24785D01*
G01X24956Y24773D01*
G01X24976Y24761D01*
G01X24997Y24749D01*
G01X25017Y24737D01*
G01X25058Y24712D01*
G01X25078Y24699D01*
G01X25098Y24686D01*
G01X25139Y24659D01*
G01X25160Y24646D01*
G01X25181Y24632D01*
G01X25201Y24618D01*
G01X25242Y24589D01*
G01X25263Y24575D01*
G01X25302Y24546D01*
G01X25322Y24531D01*
G01X25362Y24501D01*
G01X25381Y24486D01*
G01X25439Y24439D01*
G01X25458Y24423D01*
G01X25477Y24408D01*
G01X25514Y24376D01*
G01X25532Y24360D01*
G01X25550Y24344D01*
G01X25586Y24311D01*
G01X25604Y24294D01*
G01X25622Y24278D01*
G01X25639Y24261D01*
G01X25674Y24227D01*
G01X25691Y24210D01*
G01X25708Y24192D01*
G01X25725Y24175D01*
G01X25742Y24158D01*
G01X25758Y24140D01*
G01X25775Y24122D01*
G01X25791Y24105D01*
G01X25807Y24086D01*
G01X25823Y24069D01*
G01X25839Y24050D01*
G01X25855Y24032D01*
G01X25871Y24014D01*
G01X25886Y23995D01*
G01X25902Y23977D01*
G01X25917Y23958D01*
G01X25932Y23939D01*
G01X25947Y23920D01*
G01X25961Y23901D01*
G01X25976Y23882D01*
G01X25990Y23863D01*
G01X26005Y23843D01*
G01X26019Y23824D01*
G01X26033Y23804D01*
G01X26047Y23784D01*
G01X26061Y23765D01*
G01X26075Y23745D01*
G01X26088Y23725D01*
G01X26115Y23684D01*
G01X26141Y23644D01*
G01X26154Y23623D01*
G01X26179Y23581D01*
G01X26191Y23560D01*
G01X26216Y23518D01*
G01X26228Y23497D01*
G01X26239Y23476D01*
G01X26251Y23454D01*
G01X26263Y23433D01*
G01X26285Y23389D01*
G01X26297Y23367D01*
G01X26307Y23345D01*
G01X26329Y23301D01*
G01X26340Y23279D01*
G01X26350Y23256D01*
G01X26371Y23211D01*
G01X26380Y23188D01*
G01X26390Y23165D01*
G01X26410Y23119D01*
G01X26419Y23096D01*
G01X26428Y23073D01*
G01X26437Y23050D01*
G01X26446Y23026D01*
G01X26455Y23003D01*
G01X26464Y22979D01*
G01X26472Y22955D01*
G01X26481Y22931D01*
G01X26497Y22883D01*
G01X26505Y22859D01*
G01X26513Y22835D01*
G01X26528Y22786D01*
G01X26535Y22761D01*
G01X26550Y22712D01*
G01X26570Y22637D01*
G01X26577Y22611D01*
G01X26583Y22586D01*
G01X26589Y22561D01*
G01X26596Y22535D01*
G01X26601Y22509D01*
G01X26607Y22484D01*
G01X26611Y22466D01*
G01X26614Y22448D01*
G01X26618Y22429D01*
G01X26621Y22409D01*
G01X26625Y22389D01*
G01X26628Y22369D01*
G01X26631Y22347D01*
G01X26633Y22326D01*
G01X26636Y22303D01*
G01X26639Y22281D01*
G01X26641Y22257D01*
G01X26643Y22234D01*
G01X26645Y22210D01*
G01X26647Y22186D01*
G01X26649Y22161D01*
G01X26651Y22136D01*
G01X26652Y22111D01*
G01X26654Y22085D01*
G01X26655Y22059D01*
G01X26656Y22033D01*
G01X26657Y22007D01*
G01X26658Y21980D01*
G01X26659Y21954D01*
G01X26660Y21927D01*
G01X26660Y21900D01*
G01X26660Y21873D01*
G01X26660Y21846D01*
G01X26660Y21819D01*
G01X26660Y21765D01*
G01X26659Y21711D01*
G01X26659Y21684D01*
G01X26658Y21658D01*
G01X26657Y21631D01*
G01X26656Y21605D01*
G01X26655Y21578D01*
G01X26653Y21552D01*
G01X26652Y21527D01*
G01X26650Y21501D01*
G01X26649Y21476D01*
G01X26647Y21451D01*
G01X26645Y21426D01*
G01X26643Y21402D01*
G01X26640Y21378D01*
G01X26638Y21355D01*
G01X26635Y21331D01*
G01X26633Y21309D01*
G01X26630Y21286D01*
G01X26627Y21265D01*
G01X26624Y21244D01*
G01X26621Y21223D01*
G01X26617Y21203D01*
G01X26614Y21184D01*
G01X26610Y21165D01*
G01X26606Y21147D01*
G01X26601Y21122D01*
G01X26595Y21098D01*
G01X26590Y21073D01*
G01X26584Y21049D01*
G01X26578Y21025D01*
G01X26572Y21001D01*
G01X26559Y20953D01*
G01X26552Y20929D01*
G01X26539Y20881D01*
G01X26531Y20857D01*
G01X26524Y20834D01*
G01X26517Y20811D01*
G01X26510Y20787D01*
G01X26502Y20764D01*
G01X26494Y20740D01*
G01X26478Y20694D01*
G01X26470Y20671D01*
G01X26461Y20648D01*
G01X26453Y20625D01*
G01X26444Y20603D01*
G01X26435Y20580D01*
G01X26426Y20557D01*
G01X26417Y20535D01*
G01X26398Y20490D01*
G01X26379Y20446D01*
G01X26369Y20424D01*
G01X26359Y20402D01*
G01X26339Y20358D01*
G01X26328Y20336D01*
G01X26318Y20315D01*
G01X26307Y20293D01*
G01X26297Y20272D01*
G01X26275Y20229D01*
G01X26263Y20208D01*
G01X26252Y20187D01*
G01X26240Y20166D01*
G01X26229Y20145D01*
G01X26217Y20125D01*
G01X26205Y20104D01*
G01X26193Y20083D01*
G01X26181Y20063D01*
G01X26156Y20022D01*
G01X26143Y20002D01*
G01X26131Y19982D01*
G01X26118Y19962D01*
G01X26092Y19922D01*
G01X26079Y19903D01*
G01X26065Y19883D01*
G01X26052Y19864D01*
G01X26039Y19844D01*
G01X26025Y19825D01*
G01X26011Y19806D01*
G01X25997Y19787D01*
G01X25954Y19730D01*
G01X25940Y19712D01*
G01X25910Y19675D01*
G01X25896Y19657D01*
G01X25881Y19639D01*
G01X25865Y19621D01*
G01X25850Y19603D01*
G01X25835Y19585D01*
G01X25819Y19567D01*
G01X25804Y19550D01*
G01X25788Y19532D01*
G01X25772Y19515D01*
G01X25757Y19497D01*
G01X25740Y19480D01*
G01X25725Y19463D01*
G01X25708Y19446D01*
G01X25692Y19429D01*
G01X25675Y19413D01*
G01X25659Y19396D01*
G01X25625Y19363D01*
G01X25608Y19347D01*
G01X25591Y19331D01*
G01X25557Y19299D01*
G01X25539Y19284D01*
G01X25504Y19252D01*
G01X25486Y19237D01*
G01X25468Y19222D01*
G01X25451Y19207D01*
G01X25432Y19192D01*
G01X25396Y19162D01*
G01X25378Y19147D01*
G01X25359Y19133D01*
G01X25341Y19119D01*
G01X25303Y19090D01*
G01X25284Y19076D01*
G01X25246Y19048D01*
G01X25227Y19035D01*
G01X25188Y19008D01*
G01X25168Y18995D01*
G01X25129Y18969D01*
G01X25110Y18956D01*
G01X25069Y18931D01*
G01X25029Y18906D01*
G01X25009Y18894D01*
G01X24989Y18882D01*
G01X24968Y18870D01*
G01X24927Y18847D01*
G01X24906Y18836D01*
G01X24885Y18824D01*
G01X24864Y18813D01*
G01X24843Y18802D01*
G01X24822Y18791D01*
G01X24801Y18780D01*
G01X24758Y18759D01*
G01X24714Y18739D01*
G01X24693Y18729D01*
G01X24671Y18719D01*
G01X24649Y18709D01*
G01X24627Y18699D01*
G01X24605Y18690D01*
G01X24583Y18680D01*
G01X24561Y18671D01*
G01X24538Y18662D01*
G01X24493Y18645D01*
G01X24471Y18636D01*
G01X24448Y18628D01*
G01X24403Y18611D01*
G01X24380Y18603D01*
G01X24357Y18596D01*
G01X24334Y18588D01*
G01X24310Y18580D01*
G01X24287Y18573D01*
G01X24240Y18559D01*
G01X24217Y18552D01*
G01X24193Y18545D01*
G01X24170Y18538D01*
G01X24122Y18526D01*
G01X24098Y18520D01*
G01X24075Y18514D01*
G01X24029Y18503D01*
G01X23982Y18492D01*
G01X23959Y18488D01*
G01X23935Y18483D01*
G01X23912Y18478D01*
G01X23889Y18473D01*
G01X23865Y18469D01*
G01X23842Y18465D01*
G01X23795Y18457D01*
G01X23772Y18454D01*
G01X23749Y18450D01*
G01X23725Y18447D01*
G01X23702Y18444D01*
G01X23655Y18438D01*
G01X23632Y18436D01*
G01X23609Y18433D01*
G01X23585Y18431D01*
G01X23562Y18429D01*
G01X23539Y18427D01*
G01X23515Y18425D01*
G01X23492Y18423D01*
G01X23446Y18421D01*
G01X23422Y18419D01*
G01X23399Y18419D01*
G01X23376Y18417D01*
G01X23330Y18416D01*
G37*

%LPC*%
G36*
G01X23206Y18725D02*
G01X23232Y18725D01*
G01X23258Y18725D01*
G01X23311Y18725D01*
G01X23337Y18726D01*
G01X23363Y18726D01*
G01X23389Y18727D01*
G01X23415Y18728D01*
G01X23441Y18729D01*
G01X23467Y18730D01*
G01X23493Y18732D01*
G01X23518Y18734D01*
G01X23569Y18737D01*
G01X23593Y18739D01*
G01X23618Y18742D01*
G01X23642Y18744D01*
G01X23666Y18746D01*
G01X23690Y18749D01*
G01X23713Y18752D01*
G01X23736Y18755D01*
G01X23759Y18758D01*
G01X23781Y18762D01*
G01X23802Y18765D01*
G01X23823Y18769D01*
G01X23844Y18773D01*
G01X23864Y18777D01*
G01X23912Y18787D01*
G01X23936Y18792D01*
G01X23960Y18798D01*
G01X23984Y18804D01*
G01X24008Y18810D01*
G01X24032Y18816D01*
G01X24079Y18829D01*
G01X24103Y18836D01*
G01X24126Y18842D01*
G01X24150Y18850D01*
G01X24173Y18857D01*
G01X24196Y18864D01*
G01X24219Y18871D01*
G01X24242Y18879D01*
G01X24265Y18887D01*
G01X24288Y18895D01*
G01X24311Y18903D01*
G01X24334Y18911D01*
G01X24379Y18929D01*
G01X24401Y18938D01*
G01X24424Y18946D01*
G01X24468Y18965D01*
G01X24512Y18984D01*
G01X24534Y18994D01*
G01X24578Y19014D01*
G01X24599Y19024D01*
G01X24621Y19035D01*
G01X24642Y19045D01*
G01X24685Y19067D01*
G01X24706Y19078D01*
G01X24748Y19100D01*
G01X24789Y19123D01*
G01X24831Y19147D01*
G01X24872Y19171D01*
G01X24892Y19184D01*
G01X24912Y19196D01*
G01X24932Y19209D01*
G01X24972Y19235D01*
G01X24991Y19248D01*
G01X25011Y19261D01*
G01X25030Y19275D01*
G01X25050Y19288D01*
G01X25069Y19302D01*
G01X25088Y19315D01*
G01X25107Y19329D01*
G01X25126Y19344D01*
G01X25145Y19358D01*
G01X25182Y19386D01*
G01X25201Y19401D01*
G01X25219Y19416D01*
G01X25237Y19431D01*
G01X25255Y19446D01*
G01X25273Y19461D01*
G01X25291Y19476D01*
G01X25309Y19492D01*
G01X25327Y19507D01*
G01X25344Y19523D01*
G01X25361Y19539D01*
G01X25379Y19555D01*
G01X25396Y19571D01*
G01X25413Y19587D01*
G01X25447Y19619D01*
G01X25480Y19653D01*
G01X25496Y19669D01*
G01X25528Y19703D01*
G01X25544Y19721D01*
G01X25560Y19738D01*
G01X25576Y19755D01*
G01X25607Y19790D01*
G01X25638Y19826D01*
G01X25653Y19844D01*
G01X25668Y19862D01*
G01X25683Y19880D01*
G01X25697Y19899D01*
G01X25712Y19917D01*
G01X25726Y19936D01*
G01X25755Y19973D01*
G01X25769Y19992D01*
G01X25782Y20011D01*
G01X25796Y20030D01*
G01X25810Y20050D01*
G01X25823Y20069D01*
G01X25836Y20088D01*
G01X25863Y20127D01*
G01X25888Y20167D01*
G01X25901Y20187D01*
G01X25913Y20207D01*
G01X25925Y20227D01*
G01X25937Y20247D01*
G01X25949Y20268D01*
G01X25961Y20288D01*
G01X25984Y20329D01*
G01X25996Y20350D01*
G01X26007Y20371D01*
G01X26018Y20392D01*
G01X26029Y20413D01*
G01X26039Y20434D01*
G01X26050Y20455D01*
G01X26060Y20477D01*
G01X26071Y20498D01*
G01X26081Y20519D01*
G01X26101Y20563D01*
G01X26120Y20606D01*
G01X26138Y20650D01*
G01X26147Y20673D01*
G01X26156Y20695D01*
G01X26164Y20717D01*
G01X26173Y20739D01*
G01X26181Y20762D01*
G01X26189Y20784D01*
G01X26197Y20807D01*
G01X26205Y20830D01*
G01X26221Y20875D01*
G01X26235Y20921D01*
G01X26242Y20944D01*
G01X26249Y20968D01*
G01X26255Y20991D01*
G01X26262Y21014D01*
G01X26274Y21061D01*
G01X26280Y21085D01*
G01X26286Y21108D01*
G01X26291Y21132D01*
G01X26297Y21156D01*
G01X26307Y21203D01*
G01X26312Y21228D01*
G01X26317Y21252D01*
G01X26321Y21276D01*
G01X26325Y21295D01*
G01X26328Y21315D01*
G01X26331Y21336D01*
G01X26334Y21357D01*
G01X26336Y21380D01*
G01X26339Y21402D01*
G01X26342Y21425D01*
G01X26344Y21449D01*
G01X26346Y21473D01*
G01X26348Y21498D01*
G01X26350Y21523D01*
G01X26352Y21548D01*
G01X26354Y21599D01*
G01X26356Y21626D01*
G01X26356Y21652D01*
G01X26357Y21679D01*
G01X26358Y21705D01*
G01X26359Y21732D01*
G01X26359Y21760D01*
G01X26360Y21814D01*
G01X26359Y21841D01*
G01X26359Y21896D01*
G01X26358Y21923D01*
G01X26357Y21976D01*
G01X26356Y22003D01*
G01X26355Y22029D01*
G01X26353Y22055D01*
G01X26352Y22081D01*
G01X26350Y22106D01*
G01X26348Y22131D01*
G01X26346Y22156D01*
G01X26344Y22180D01*
G01X26342Y22203D01*
G01X26339Y22227D01*
G01X26337Y22250D01*
G01X26334Y22272D01*
G01X26331Y22293D01*
G01X26328Y22314D01*
G01X26325Y22334D01*
G01X26322Y22354D01*
G01X26318Y22377D01*
G01X26313Y22399D01*
G01X26309Y22422D01*
G01X26303Y22445D01*
G01X26298Y22468D01*
G01X26293Y22491D01*
G01X26287Y22515D01*
G01X26281Y22538D01*
G01X26275Y22561D01*
G01X26269Y22585D01*
G01X26262Y22609D01*
G01X26256Y22633D01*
G01X26248Y22657D01*
G01X26241Y22680D01*
G01X26234Y22705D01*
G01X26218Y22753D01*
G01X26210Y22777D01*
G01X26202Y22801D01*
G01X26194Y22825D01*
G01X26167Y22896D01*
G01X26158Y22921D01*
G01X26139Y22968D01*
G01X26130Y22992D01*
G01X26120Y23015D01*
G01X26110Y23039D01*
G01X26100Y23063D01*
G01X26089Y23086D01*
G01X26079Y23109D01*
G01X26068Y23132D01*
G01X26058Y23155D01*
G01X26047Y23178D01*
G01X26036Y23200D01*
G01X26025Y23223D01*
G01X26014Y23245D01*
G01X25991Y23289D01*
G01X25980Y23311D01*
G01X25968Y23332D01*
G01X25956Y23353D01*
G01X25944Y23374D01*
G01X25932Y23395D01*
G01X25921Y23416D01*
G01X25909Y23436D01*
G01X25896Y23456D01*
G01X25884Y23476D01*
G01X25872Y23495D01*
G01X25859Y23514D01*
G01X25847Y23533D01*
G01X25834Y23552D01*
G01X25820Y23572D01*
G01X25806Y23592D01*
G01X25778Y23631D01*
G01X25763Y23650D01*
G01X25748Y23670D01*
G01X25734Y23689D01*
G01X25718Y23709D01*
G01X25703Y23728D01*
G01X25687Y23748D01*
G01X25672Y23767D01*
G01X25656Y23786D01*
G01X25639Y23805D01*
G01X25623Y23825D01*
G01X25606Y23844D01*
G01X25589Y23863D01*
G01X25573Y23882D01*
G01X25556Y23901D01*
G01X25539Y23919D01*
G01X25504Y23956D01*
G01X25486Y23975D01*
G01X25468Y23993D01*
G01X25451Y24011D01*
G01X25432Y24029D01*
G01X25414Y24046D01*
G01X25396Y24064D01*
G01X25378Y24082D01*
G01X25360Y24099D01*
G01X25341Y24116D01*
G01X25323Y24133D01*
G01X25304Y24150D01*
G01X25285Y24167D01*
G01X25267Y24183D01*
G01X25248Y24199D01*
G01X25229Y24215D01*
G01X25210Y24231D01*
G01X25192Y24246D01*
G01X25173Y24262D01*
G01X25154Y24277D01*
G01X25135Y24292D01*
G01X25116Y24306D01*
G01X25097Y24321D01*
G01X25078Y24335D01*
G01X25059Y24348D01*
G01X25022Y24375D01*
G01X25003Y24388D01*
G01X24984Y24401D01*
G01X24965Y24413D01*
G01X24947Y24426D01*
G01X24926Y24439D01*
G01X24905Y24452D01*
G01X24883Y24465D01*
G01X24862Y24478D01*
G01X24840Y24490D01*
G01X24818Y24503D01*
G01X24795Y24515D01*
G01X24773Y24528D01*
G01X24750Y24540D01*
G01X24727Y24552D01*
G01X24703Y24564D01*
G01X24680Y24576D01*
G01X24656Y24588D01*
G01X24633Y24599D01*
G01X24609Y24611D01*
G01X24585Y24622D01*
G01X24560Y24633D01*
G01X24536Y24644D01*
G01X24512Y24654D01*
G01X24487Y24665D01*
G01X24463Y24675D01*
G01X24438Y24685D01*
G01X24413Y24695D01*
G01X24364Y24715D01*
G01X24339Y24724D01*
G01X24314Y24733D01*
G01X24264Y24751D01*
G01X24239Y24759D01*
G01X24189Y24776D01*
G01X24164Y24784D01*
G01X24139Y24791D01*
G01X24114Y24798D01*
G01X24089Y24805D01*
G01X24065Y24813D01*
G01X24040Y24819D01*
G01X24016Y24826D01*
G01X23992Y24832D01*
G01X23967Y24837D01*
G01X23943Y24843D01*
G01X23919Y24848D01*
G01X23895Y24853D01*
G01X23872Y24858D01*
G01X23848Y24863D01*
G01X23825Y24867D01*
G01X23802Y24871D01*
G01X23746Y24880D01*
G01X23718Y24884D01*
G01X23691Y24889D01*
G01X23665Y24893D01*
G01X23641Y24897D01*
G01X23618Y24901D01*
G01X23597Y24905D01*
G01X23579Y24907D01*
G01X23563Y24910D01*
G01X23550Y24913D01*
G01X23530Y24916D01*
G01X23517Y24917D01*
G01X23501Y24918D01*
G01X23484Y24919D01*
G01X23464Y24920D01*
G01X23443Y24920D01*
G01X23420Y24920D01*
G01X23395Y24920D01*
G01X23369Y24919D01*
G01X23342Y24919D01*
G01X23314Y24918D01*
G01X23284Y24917D01*
G01X23254Y24916D01*
G01X23223Y24915D01*
G01X23192Y24913D01*
G01X23160Y24912D01*
G01X23128Y24910D01*
G01X23097Y24908D01*
G01X23064Y24906D01*
G01X23033Y24903D01*
G01X23001Y24901D01*
G01X22970Y24899D01*
G01X22939Y24896D01*
G01X22910Y24893D01*
G01X22881Y24890D01*
G01X22853Y24888D01*
G01X22827Y24885D01*
G01X22801Y24882D01*
G01X22777Y24878D01*
G01X22755Y24875D01*
G01X22735Y24872D01*
G01X22716Y24869D01*
G01X22692Y24865D01*
G01X22644Y24855D01*
G01X22597Y24844D01*
G01X22573Y24839D01*
G01X22549Y24834D01*
G01X22526Y24828D01*
G01X22502Y24822D01*
G01X22478Y24815D01*
G01X22455Y24809D01*
G01X22409Y24796D01*
G01X22385Y24789D01*
G01X22363Y24782D01*
G01X22339Y24775D01*
G01X22317Y24768D01*
G01X22271Y24753D01*
G01X22248Y24745D01*
G01X22226Y24737D01*
G01X22203Y24728D01*
G01X22181Y24720D01*
G01X22158Y24711D01*
G01X22136Y24703D01*
G01X22092Y24685D01*
G01X22047Y24667D01*
G01X22004Y24647D01*
G01X21982Y24637D01*
G01X21960Y24628D01*
G01X21939Y24617D01*
G01X21896Y24596D01*
G01X21875Y24586D01*
G01X21854Y24575D01*
G01X21812Y24553D01*
G01X21770Y24530D01*
G01X21750Y24519D01*
G01X21729Y24507D01*
G01X21709Y24495D01*
G01X21688Y24483D01*
G01X21668Y24471D01*
G01X21627Y24446D01*
G01X21607Y24434D01*
G01X21588Y24421D01*
G01X21568Y24408D01*
G01X21548Y24395D01*
G01X21529Y24382D01*
G01X21509Y24368D01*
G01X21490Y24355D01*
G01X21471Y24341D01*
G01X21452Y24328D01*
G01X21432Y24313D01*
G01X21414Y24300D01*
G01X21395Y24285D01*
G01X21376Y24271D01*
G01X21357Y24256D01*
G01X21339Y24242D01*
G01X21321Y24227D01*
G01X21302Y24212D01*
G01X21284Y24197D01*
G01X21266Y24182D01*
G01X21248Y24167D01*
G01X21230Y24151D01*
G01X21213Y24136D01*
G01X21195Y24120D01*
G01X21178Y24104D01*
G01X21160Y24088D01*
G01X21143Y24072D01*
G01X21126Y24055D01*
G01X21109Y24039D01*
G01X21092Y24023D01*
G01X21076Y24006D01*
G01X21059Y23989D01*
G01X21043Y23972D01*
G01X21026Y23955D01*
G01X21010Y23938D01*
G01X20994Y23921D01*
G01X20978Y23903D01*
G01X20962Y23886D01*
G01X20946Y23868D01*
G01X20931Y23851D01*
G01X20915Y23832D01*
G01X20900Y23815D01*
G01X20885Y23796D01*
G01X20870Y23778D01*
G01X20855Y23760D01*
G01X20840Y23741D01*
G01X20826Y23723D01*
G01X20811Y23704D01*
G01X20797Y23685D01*
G01X20768Y23647D01*
G01X20754Y23628D01*
G01X20740Y23608D01*
G01X20727Y23589D01*
G01X20713Y23569D01*
G01X20700Y23550D01*
G01X20687Y23530D01*
G01X20661Y23490D01*
G01X20648Y23470D01*
G01X20623Y23429D01*
G01X20610Y23409D01*
G01X20598Y23388D01*
G01X20586Y23367D01*
G01X20574Y23347D01*
G01X20539Y23284D01*
G01X20517Y23242D01*
G01X20506Y23220D01*
G01X20484Y23177D01*
G01X20474Y23155D01*
G01X20464Y23134D01*
G01X20443Y23090D01*
G01X20433Y23067D01*
G01X20423Y23045D01*
G01X20414Y23023D01*
G01X20405Y23001D01*
G01X20395Y22978D01*
G01X20377Y22933D01*
G01X20368Y22910D01*
G01X20360Y22887D01*
G01X20352Y22864D01*
G01X20335Y22818D01*
G01X20327Y22795D01*
G01X20319Y22772D01*
G01X20312Y22748D01*
G01X20304Y22724D01*
G01X20297Y22701D01*
G01X20283Y22653D01*
G01X20277Y22629D01*
G01X20270Y22605D01*
G01X20264Y22581D01*
G01X20252Y22533D01*
G01X20246Y22509D01*
G01X20241Y22485D01*
G01X20235Y22461D01*
G01X20230Y22437D01*
G01X20225Y22413D01*
G01X20221Y22389D01*
G01X20216Y22365D01*
G01X20212Y22340D01*
G01X20204Y22292D01*
G01X20200Y22268D01*
G01X20197Y22244D01*
G01X20193Y22219D01*
G01X20190Y22195D01*
G01X20187Y22171D01*
G01X20184Y22146D01*
G01X20182Y22122D01*
G01X20177Y22073D01*
G01X20175Y22049D01*
G01X20173Y22025D01*
G01X20172Y22000D01*
G01X20171Y21976D01*
G01X20169Y21952D01*
G01X20168Y21927D01*
G01X20168Y21903D01*
G01X20167Y21878D01*
G01X20167Y21854D01*
G01X20166Y21830D01*
G01X20166Y21781D01*
G01X20167Y21757D01*
G01X20167Y21732D01*
G01X20168Y21708D01*
G01X20169Y21684D01*
G01X20170Y21659D01*
G01X20171Y21635D01*
G01X20173Y21611D01*
G01X20175Y21586D01*
G01X20176Y21562D01*
G01X20181Y21514D01*
G01X20183Y21490D01*
G01X20189Y21441D01*
G01X20192Y21417D01*
G01X20195Y21393D01*
G01X20198Y21369D01*
G01X20202Y21345D01*
G01X20210Y21297D01*
G01X20214Y21273D01*
G01X20218Y21249D01*
G01X20223Y21225D01*
G01X20227Y21201D01*
G01X20237Y21153D01*
G01X20248Y21106D01*
G01X20254Y21082D01*
G01X20260Y21058D01*
G01X20272Y21011D01*
G01X20278Y20988D01*
G01X20285Y20964D01*
G01X20298Y20917D01*
G01X20306Y20894D01*
G01X20313Y20871D01*
G01X20321Y20847D01*
G01X20328Y20824D01*
G01X20344Y20778D01*
G01X20352Y20755D01*
G01X20361Y20732D01*
G01X20370Y20709D01*
G01X20378Y20686D01*
G01X20388Y20663D01*
G01X20397Y20640D01*
G01X20406Y20617D01*
G01X20415Y20595D01*
G01X20425Y20572D01*
G01X20435Y20550D01*
G01X20445Y20527D01*
G01X20456Y20505D01*
G01X20466Y20483D01*
G01X20477Y20461D01*
G01X20499Y20416D01*
G01X20510Y20394D01*
G01X20521Y20372D01*
G01X20544Y20328D01*
G01X20556Y20307D01*
G01X20581Y20263D01*
G01X20593Y20242D01*
G01X20606Y20221D01*
G01X20619Y20199D01*
G01X20632Y20178D01*
G01X20645Y20157D01*
G01X20659Y20136D01*
G01X20672Y20115D01*
G01X20700Y20073D01*
G01X20714Y20052D01*
G01X20724Y20038D01*
G01X20735Y20023D01*
G01X20746Y20008D01*
G01X20758Y19992D01*
G01X20771Y19976D01*
G01X20784Y19959D01*
G01X20797Y19942D01*
G01X20812Y19925D01*
G01X20827Y19907D01*
G01X20842Y19889D01*
G01X20857Y19871D01*
G01X20873Y19852D01*
G01X20890Y19834D01*
G01X20907Y19815D01*
G01X20924Y19796D01*
G01X20941Y19777D01*
G01X20977Y19738D01*
G01X20995Y19719D01*
G01X21014Y19700D01*
G01X21032Y19681D01*
G01X21051Y19661D01*
G01X21069Y19642D01*
G01X21107Y19605D01*
G01X21146Y19567D01*
G01X21164Y19549D01*
G01X21183Y19531D01*
G01X21202Y19513D01*
G01X21221Y19496D01*
G01X21239Y19478D01*
G01X21258Y19461D01*
G01X21276Y19445D01*
G01X21294Y19429D01*
G01X21312Y19413D01*
G01X21330Y19398D01*
G01X21347Y19383D01*
G01X21364Y19369D01*
G01X21381Y19355D01*
G01X21397Y19342D01*
G01X21413Y19330D01*
G01X21428Y19318D01*
G01X21443Y19307D01*
G01X21461Y19294D01*
G01X21480Y19280D01*
G01X21499Y19267D01*
G01X21518Y19254D01*
G01X21537Y19242D01*
G01X21556Y19229D01*
G01X21576Y19216D01*
G01X21596Y19203D01*
G01X21616Y19191D01*
G01X21636Y19178D01*
G01X21657Y19166D01*
G01X21677Y19154D01*
G01X21719Y19130D01*
G01X21762Y19107D01*
G01X21784Y19096D01*
G01X21806Y19084D01*
G01X21827Y19073D01*
G01X21872Y19051D01*
G01X21894Y19040D01*
G01X21917Y19029D01*
G01X21939Y19019D01*
G01X21962Y19008D01*
G01X22008Y18988D01*
G01X22031Y18978D01*
G01X22055Y18968D01*
G01X22078Y18959D01*
G01X22102Y18949D01*
G01X22126Y18940D01*
G01X22150Y18930D01*
G01X22173Y18921D01*
G01X22197Y18913D01*
G01X22221Y18904D01*
G01X22246Y18895D01*
G01X22270Y18887D01*
G01X22294Y18879D01*
G01X22318Y18871D01*
G01X22343Y18863D01*
G01X22367Y18855D01*
G01X22392Y18848D01*
G01X22441Y18833D01*
G01X22465Y18826D01*
G01X22490Y18820D01*
G01X22515Y18813D01*
G01X22540Y18807D01*
G01X22564Y18801D01*
G01X22589Y18794D01*
G01X22614Y18789D01*
G01X22639Y18783D01*
G01X22664Y18778D01*
G01X22688Y18773D01*
G01X22713Y18767D01*
G01X22732Y18764D01*
G01X22752Y18760D01*
G01X22773Y18757D01*
G01X22794Y18754D01*
G01X22815Y18751D01*
G01X22838Y18748D01*
G01X22860Y18745D01*
G01X22883Y18743D01*
G01X22906Y18740D01*
G01X22930Y18738D01*
G01X22953Y18736D01*
G01X22977Y18734D01*
G01X23002Y18733D01*
G01X23027Y18731D01*
G01X23052Y18730D01*
G01X23077Y18729D01*
G01X23103Y18728D01*
G01X23128Y18727D01*
G01X23180Y18726D01*
G01X23206Y18725D01*
G37*

%LPD*%
G36*
G01X24687Y19394D02*
G01X24682Y19393D01*
G01X24679Y19395D01*
G01X24673Y19401D01*
G01X24665Y19410D01*
G01X24656Y19422D01*
G01X24645Y19437D01*
G01X24633Y19455D01*
G01X24619Y19475D01*
G01X24605Y19497D01*
G01X24590Y19521D01*
G01X24574Y19547D01*
G01X24557Y19575D01*
G01X24540Y19603D01*
G01X24529Y19622D01*
G01X24518Y19642D01*
G01X24506Y19662D01*
G01X24494Y19683D01*
G01X24481Y19704D01*
G01X24469Y19725D01*
G01X24456Y19747D01*
G01X24444Y19769D01*
G01X24431Y19791D01*
G01X24418Y19814D01*
G01X24404Y19836D01*
G01X24391Y19859D01*
G01X24364Y19905D01*
G01X24351Y19928D01*
G01X24337Y19952D01*
G01X24324Y19975D01*
G01X24310Y19998D01*
G01X24297Y20022D01*
G01X24283Y20045D01*
G01X24256Y20091D01*
G01X24230Y20137D01*
G01X24217Y20159D01*
G01X24204Y20182D01*
G01X24191Y20204D01*
G01X24178Y20226D01*
G01X24166Y20248D01*
G01X24153Y20269D01*
G01X24142Y20290D01*
G01X24130Y20310D01*
G01X24118Y20330D01*
G01X24107Y20350D01*
G01X24096Y20369D01*
G01X24085Y20388D01*
G01X24074Y20406D01*
G01X24064Y20423D01*
G01X24054Y20440D01*
G01X24045Y20457D01*
G01X24036Y20473D01*
G01X24027Y20488D01*
G01X24019Y20502D01*
G01X24011Y20516D01*
G01X23998Y20538D01*
G01X23985Y20562D01*
G01X23971Y20586D01*
G01X23956Y20611D01*
G01X23942Y20636D01*
G01X23928Y20660D01*
G01X23914Y20684D01*
G01X23900Y20707D01*
G01X23888Y20729D01*
G01X23876Y20749D01*
G01X23865Y20768D01*
G01X23855Y20784D01*
G01X23830Y20828D01*
G01X23809Y20866D01*
G01X23795Y20895D01*
G01X23790Y20911D01*
G01X23793Y20916D01*
G01X23799Y20925D01*
G01X23809Y20936D01*
G01X23823Y20949D01*
G01X23839Y20964D01*
G01X23858Y20981D01*
G01X23879Y20999D01*
G01X23901Y21017D01*
G01X23920Y21032D01*
G01X23938Y21048D01*
G01X23956Y21065D01*
G01X23974Y21081D01*
G01X23991Y21098D01*
G01X24008Y21115D01*
G01X24024Y21133D01*
G01X24040Y21151D01*
G01X24056Y21169D01*
G01X24071Y21188D01*
G01X24085Y21207D01*
G01X24099Y21226D01*
G01X24113Y21246D01*
G01X24126Y21266D01*
G01X24139Y21286D01*
G01X24151Y21307D01*
G01X24163Y21328D01*
G01X24174Y21349D01*
G01X24185Y21371D01*
G01X24196Y21393D01*
G01X24206Y21416D01*
G01X24215Y21439D01*
G01X24225Y21462D01*
G01X24234Y21486D01*
G01X24242Y21510D01*
G01X24250Y21534D01*
G01X24258Y21559D01*
G01X24265Y21585D01*
G01X24272Y21610D01*
G01X24278Y21636D01*
G01X24284Y21663D01*
G01X24289Y21690D01*
G01X24315Y21820D01*
G01X26081Y21820D01*
G01X26081Y21720D01*
G01X26080Y21705D01*
G01X26080Y21688D01*
G01X26078Y21669D01*
G01X26077Y21649D01*
G01X26075Y21628D01*
G01X26072Y21605D01*
G01X26070Y21582D01*
G01X26067Y21558D01*
G01X26063Y21532D01*
G01X26059Y21506D01*
G01X26055Y21479D01*
G01X26051Y21452D01*
G01X26046Y21424D01*
G01X26041Y21396D01*
G01X26036Y21367D01*
G01X26031Y21338D01*
G01X26026Y21309D01*
G01X26020Y21280D01*
G01X26014Y21251D01*
G01X26008Y21222D01*
G01X26002Y21194D01*
G01X25996Y21165D01*
G01X25989Y21138D01*
G01X25983Y21111D01*
G01X25976Y21084D01*
G01X25970Y21058D01*
G01X25964Y21033D01*
G01X25957Y21009D01*
G01X25951Y20986D01*
G01X25944Y20964D01*
G01X25938Y20944D01*
G01X25931Y20924D01*
G01X25924Y20902D01*
G01X25916Y20879D01*
G01X25907Y20856D01*
G01X25899Y20834D01*
G01X25890Y20811D01*
G01X25882Y20789D01*
G01X25873Y20766D01*
G01X25864Y20744D01*
G01X25854Y20722D01*
G01X25844Y20700D01*
G01X25835Y20678D01*
G01X25825Y20656D01*
G01X25814Y20634D01*
G01X25804Y20612D01*
G01X25793Y20590D01*
G01X25783Y20569D01*
G01X25772Y20547D01*
G01X25760Y20526D01*
G01X25749Y20504D01*
G01X25738Y20483D01*
G01X25726Y20461D01*
G01X25714Y20440D01*
G01X25702Y20419D01*
G01X25689Y20398D01*
G01X25664Y20357D01*
G01X25638Y20315D01*
G01X25611Y20275D01*
G01X25597Y20255D01*
G01X25584Y20234D01*
G01X25570Y20214D01*
G01X25556Y20194D01*
G01X25541Y20175D01*
G01X25527Y20155D01*
G01X25512Y20135D01*
G01X25497Y20116D01*
G01X25482Y20096D01*
G01X25467Y20077D01*
G01X25452Y20058D01*
G01X25436Y20039D01*
G01X25420Y20020D01*
G01X25404Y20002D01*
G01X25388Y19983D01*
G01X25372Y19965D01*
G01X25356Y19946D01*
G01X25339Y19928D01*
G01X25306Y19892D01*
G01X25289Y19874D01*
G01X25272Y19857D01*
G01X25254Y19839D01*
G01X25237Y19821D01*
G01X25219Y19804D01*
G01X25202Y19787D01*
G01X25184Y19770D01*
G01X25165Y19753D01*
G01X25147Y19737D01*
G01X25129Y19720D01*
G01X25110Y19704D01*
G01X25092Y19688D01*
G01X25073Y19672D01*
G01X25035Y19640D01*
G01X25016Y19625D01*
G01X24977Y19594D01*
G01X24957Y19579D01*
G01X24938Y19564D01*
G01X24918Y19549D01*
G01X24898Y19535D01*
G01X24871Y19515D01*
G01X24845Y19497D01*
G01X24820Y19480D01*
G01X24796Y19463D01*
G01X24774Y19448D01*
G01X24753Y19435D01*
G01X24735Y19423D01*
G01X24719Y19413D01*
G01X24705Y19404D01*
G01X24694Y19398D01*
G01X24687Y19394D01*
G37*

%LPC*%

%LPD*%
G36*
G01X21860Y19396D02*
G01X21855Y19393D01*
G01X21847Y19394D01*
G01X21838Y19397D01*
G01X21827Y19401D01*
G01X21815Y19407D01*
G01X21801Y19415D01*
G01X21786Y19424D01*
G01X21769Y19434D01*
G01X21751Y19446D01*
G01X21732Y19459D01*
G01X21711Y19473D01*
G01X21690Y19488D01*
G01X21668Y19504D01*
G01X21646Y19521D01*
G01X21622Y19539D01*
G01X21598Y19558D01*
G01X21574Y19577D01*
G01X21549Y19597D01*
G01X21524Y19618D01*
G01X21499Y19639D01*
G01X21474Y19660D01*
G01X21449Y19682D01*
G01X21424Y19704D01*
G01X21399Y19726D01*
G01X21375Y19748D01*
G01X21351Y19770D01*
G01X21328Y19792D01*
G01X21306Y19813D01*
G01X21284Y19835D01*
G01X21265Y19853D01*
G01X21229Y19891D01*
G01X21211Y19910D01*
G01X21193Y19929D01*
G01X21176Y19948D01*
G01X21159Y19967D01*
G01X21142Y19986D01*
G01X21125Y20006D01*
G01X21108Y20026D01*
G01X21092Y20045D01*
G01X21076Y20065D01*
G01X21060Y20085D01*
G01X21044Y20105D01*
G01X21028Y20125D01*
G01X21013Y20145D01*
G01X20997Y20165D01*
G01X20982Y20186D01*
G01X20968Y20206D01*
G01X20938Y20247D01*
G01X20924Y20268D01*
G01X20910Y20289D01*
G01X20896Y20310D01*
G01X20883Y20331D01*
G01X20869Y20352D01*
G01X20856Y20373D01*
G01X20843Y20394D01*
G01X20830Y20415D01*
G01X20818Y20437D01*
G01X20805Y20459D01*
G01X20793Y20480D01*
G01X20781Y20502D01*
G01X20769Y20524D01*
G01X20758Y20546D01*
G01X20747Y20567D01*
G01X20735Y20590D01*
G01X20725Y20612D01*
G01X20703Y20656D01*
G01X20693Y20678D01*
G01X20673Y20723D01*
G01X20664Y20746D01*
G01X20654Y20769D01*
G01X20645Y20791D01*
G01X20636Y20814D01*
G01X20627Y20837D01*
G01X20619Y20860D01*
G01X20610Y20883D01*
G01X20602Y20906D01*
G01X20594Y20929D01*
G01X20587Y20952D01*
G01X20580Y20975D01*
G01X20572Y20999D01*
G01X20565Y21022D01*
G01X20558Y21046D01*
G01X20552Y21069D01*
G01X20546Y21092D01*
G01X20539Y21116D01*
G01X20534Y21140D01*
G01X20528Y21163D01*
G01X20517Y21211D01*
G01X20512Y21235D01*
G01X20507Y21259D01*
G01X20502Y21283D01*
G01X20494Y21331D01*
G01X20490Y21355D01*
G01X20486Y21379D01*
G01X20483Y21403D01*
G01X20480Y21428D01*
G01X20477Y21452D01*
G01X20474Y21477D01*
G01X20472Y21501D01*
G01X20469Y21525D01*
G01X20467Y21550D01*
G01X20465Y21575D01*
G01X20464Y21599D01*
G01X20450Y21820D01*
G01X22215Y21820D01*
G01X22243Y21667D01*
G01X22248Y21645D01*
G01X22253Y21622D01*
G01X22259Y21600D01*
G01X22265Y21577D01*
G01X22271Y21555D01*
G01X22278Y21532D01*
G01X22286Y21510D01*
G01X22294Y21488D01*
G01X22303Y21465D01*
G01X22313Y21443D01*
G01X22322Y21421D01*
G01X22332Y21400D01*
G01X22343Y21378D01*
G01X22354Y21357D01*
G01X22366Y21335D01*
G01X22378Y21314D01*
G01X22390Y21293D01*
G01X22403Y21273D01*
G01X22416Y21252D01*
G01X22429Y21232D01*
G01X22443Y21213D01*
G01X22457Y21193D01*
G01X22472Y21174D01*
G01X22487Y21155D01*
G01X22502Y21137D01*
G01X22518Y21119D01*
G01X22533Y21102D01*
G01X22549Y21085D01*
G01X22565Y21069D01*
G01X22582Y21053D01*
G01X22599Y21037D01*
G01X22616Y21022D01*
G01X22633Y21007D01*
G01X22651Y20993D01*
G01X22668Y20980D01*
G01X22686Y20967D01*
G01X22750Y20923D01*
G01X22666Y20776D01*
G01X22657Y20760D01*
G01X22647Y20743D01*
G01X22637Y20725D01*
G01X22626Y20705D01*
G01X22614Y20686D01*
G01X22602Y20665D01*
G01X22590Y20644D01*
G01X22578Y20623D01*
G01X22554Y20579D01*
G01X22542Y20558D01*
G01X22530Y20537D01*
G01X22518Y20516D01*
G01X22506Y20496D01*
G01X22496Y20477D01*
G01X22485Y20459D01*
G01X22477Y20444D01*
G01X22468Y20428D01*
G01X22457Y20410D01*
G01X22446Y20390D01*
G01X22435Y20370D01*
G01X22422Y20348D01*
G01X22409Y20326D01*
G01X22395Y20302D01*
G01X22381Y20278D01*
G01X22367Y20253D01*
G01X22352Y20227D01*
G01X22337Y20201D01*
G01X22322Y20175D01*
G01X22306Y20148D01*
G01X22291Y20122D01*
G01X22276Y20096D01*
G01X22261Y20070D01*
G01X22246Y20044D01*
G01X22231Y20019D01*
G01X22202Y19970D01*
G01X22188Y19944D01*
G01X22173Y19919D01*
G01X22158Y19894D01*
G01X22143Y19868D01*
G01X22128Y19842D01*
G01X22113Y19816D01*
G01X22098Y19791D01*
G01X22084Y19766D01*
G01X22070Y19741D01*
G01X22056Y19717D01*
G01X22043Y19694D01*
G01X22030Y19671D01*
G01X22017Y19650D01*
G01X22006Y19629D01*
G01X21994Y19610D01*
G01X21984Y19592D01*
G01X21975Y19575D01*
G01X21967Y19560D01*
G01X21959Y19546D01*
G01X21942Y19516D01*
G01X21925Y19487D01*
G01X21908Y19461D01*
G01X21893Y19438D01*
G01X21880Y19419D01*
G01X21869Y19405D01*
G01X21860Y19396D01*
G37*

%LPC*%

%LPD*%
G36*
G01X23296Y21234D02*
G01X23272Y21234D01*
G01X23248Y21234D01*
G01X23224Y21236D01*
G01X23192Y21238D01*
G01X23162Y21242D01*
G01X23134Y21246D01*
G01X23107Y21251D01*
G01X23081Y21258D01*
G01X23057Y21265D01*
G01X23033Y21273D01*
G01X23011Y21283D01*
G01X22989Y21294D01*
G01X22967Y21307D01*
G01X22946Y21321D01*
G01X22925Y21336D01*
G01X22903Y21353D01*
G01X22882Y21371D01*
G01X22860Y21392D01*
G01X22838Y21414D01*
G01X22820Y21434D01*
G01X22803Y21453D01*
G01X22788Y21472D01*
G01X22773Y21491D01*
G01X22760Y21511D01*
G01X22748Y21531D01*
G01X22736Y21551D01*
G01X22727Y21571D01*
G01X22718Y21592D01*
G01X22710Y21613D01*
G01X22702Y21635D01*
G01X22697Y21657D01*
G01X22692Y21680D01*
G01X22688Y21704D01*
G01X22685Y21728D01*
G01X22683Y21753D01*
G01X22682Y21778D01*
G01X22682Y21805D01*
G01X22682Y21832D01*
G01X22684Y21860D01*
G01X22686Y21886D01*
G01X22689Y21911D01*
G01X22692Y21935D01*
G01X22696Y21958D01*
G01X22700Y21980D01*
G01X22705Y22001D01*
G01X22710Y22021D01*
G01X22717Y22040D01*
G01X22723Y22059D01*
G01X22731Y22077D01*
G01X22740Y22095D01*
G01X22750Y22113D01*
G01X22760Y22130D01*
G01X22772Y22147D01*
G01X22784Y22164D01*
G01X22797Y22181D01*
G01X22812Y22198D01*
G01X22828Y22215D01*
G01X22844Y22232D01*
G01X22863Y22251D01*
G01X22879Y22265D01*
G01X22896Y22280D01*
G01X22914Y22294D01*
G01X22932Y22307D01*
G01X22952Y22319D01*
G01X22972Y22330D01*
G01X22992Y22341D01*
G01X23014Y22352D01*
G01X23035Y22361D01*
G01X23057Y22369D01*
G01X23079Y22377D01*
G01X23102Y22384D01*
G01X23125Y22390D01*
G01X23148Y22396D01*
G01X23171Y22400D01*
G01X23195Y22404D01*
G01X23218Y22407D01*
G01X23242Y22409D01*
G01X23266Y22409D01*
G01X23289Y22410D01*
G01X23313Y22409D01*
G01X23336Y22407D01*
G01X23359Y22405D01*
G01X23382Y22402D01*
G01X23404Y22398D01*
G01X23427Y22392D01*
G01X23448Y22386D01*
G01X23470Y22379D01*
G01X23487Y22372D01*
G01X23506Y22362D01*
G01X23527Y22351D01*
G01X23549Y22338D01*
G01X23572Y22323D01*
G01X23593Y22308D01*
G01X23614Y22293D01*
G01X23634Y22278D01*
G01X23653Y22261D01*
G01X23672Y22243D01*
G01X23689Y22225D01*
G01X23706Y22207D01*
G01X23722Y22188D01*
G01X23737Y22169D01*
G01X23751Y22149D01*
G01X23764Y22129D01*
G01X23777Y22108D01*
G01X23788Y22088D01*
G01X23798Y22067D01*
G01X23808Y22045D01*
G01X23817Y22023D01*
G01X23825Y22002D01*
G01X23832Y21980D01*
G01X23838Y21957D01*
G01X23843Y21935D01*
G01X23847Y21912D01*
G01X23851Y21890D01*
G01X23853Y21867D01*
G01X23855Y21844D01*
G01X23856Y21821D01*
G01X23856Y21799D01*
G01X23854Y21776D01*
G01X23852Y21753D01*
G01X23849Y21731D01*
G01X23845Y21708D01*
G01X23840Y21686D01*
G01X23835Y21664D01*
G01X23828Y21642D01*
G01X23820Y21620D01*
G01X23812Y21598D01*
G01X23802Y21577D01*
G01X23792Y21556D01*
G01X23781Y21535D01*
G01X23768Y21515D01*
G01X23755Y21495D01*
G01X23740Y21476D01*
G01X23725Y21456D01*
G01X23709Y21438D01*
G01X23692Y21419D01*
G01X23675Y21401D01*
G01X23657Y21384D01*
G01X23639Y21369D01*
G01X23621Y21353D01*
G01X23603Y21340D01*
G01X23585Y21326D01*
G01X23566Y21314D01*
G01X23547Y21303D01*
G01X23528Y21292D01*
G01X23509Y21282D01*
G01X23489Y21274D01*
G01X23469Y21266D01*
G01X23448Y21259D01*
G01X23427Y21253D01*
G01X23406Y21248D01*
G01X23385Y21243D01*
G01X23363Y21240D01*
G01X23341Y21237D01*
G01X23319Y21235D01*
G01X23296Y21234D01*
G37*

%LPC*%

%LPD*%
G36*
G01X23801Y22732D02*
G01X23796Y22731D01*
G01X23783Y22734D01*
G01X23765Y22738D01*
G01X23741Y22744D01*
G01X23712Y22752D01*
G01X23679Y22762D01*
G01X23643Y22773D01*
G01X23605Y22785D01*
G01X23578Y22794D01*
G01X23552Y22802D01*
G01X23525Y22809D01*
G01X23500Y22815D01*
G01X23474Y22821D01*
G01X23449Y22827D01*
G01X23424Y22831D01*
G01X23400Y22836D01*
G01X23375Y22839D01*
G01X23351Y22842D01*
G01X23327Y22844D01*
G01X23304Y22846D01*
G01X23280Y22846D01*
G01X23257Y22847D01*
G01X23233Y22846D01*
G01X23210Y22845D01*
G01X23186Y22844D01*
G01X23163Y22842D01*
G01X23139Y22839D01*
G01X23116Y22835D01*
G01X23092Y22831D01*
G01X23068Y22826D01*
G01X23044Y22821D01*
G01X23020Y22815D01*
G01X22996Y22808D01*
G01X22971Y22801D01*
G01X22946Y22793D01*
G01X22920Y22784D01*
G01X22870Y22767D01*
G01X22830Y22755D01*
G01X22797Y22746D01*
G01X22772Y22741D01*
G01X22753Y22739D01*
G01X22739Y22741D01*
G01X22729Y22746D01*
G01X22722Y22753D01*
G01X22718Y22760D01*
G01X22711Y22771D01*
G01X22702Y22785D01*
G01X22692Y22803D01*
G01X22679Y22824D01*
G01X22665Y22848D01*
G01X22649Y22875D01*
G01X22632Y22904D01*
G01X22614Y22934D01*
G01X22596Y22967D01*
G01X22576Y23000D01*
G01X22556Y23034D01*
G01X22528Y23082D01*
G01X22501Y23129D01*
G01X22474Y23176D01*
G01X22448Y23221D01*
G01X22423Y23264D01*
G01X22398Y23307D01*
G01X22374Y23348D01*
G01X22351Y23389D01*
G01X22328Y23428D01*
G01X22306Y23466D01*
G01X22285Y23503D01*
G01X22264Y23539D01*
G01X22244Y23574D01*
G01X22224Y23608D01*
G01X22206Y23641D01*
G01X22187Y23673D01*
G01X22169Y23703D01*
G01X22152Y23733D01*
G01X22136Y23762D01*
G01X22120Y23790D01*
G01X22105Y23817D01*
G01X22090Y23843D01*
G01X22076Y23868D01*
G01X22062Y23892D01*
G01X22049Y23915D01*
G01X22036Y23938D01*
G01X22025Y23959D01*
G01X22013Y23980D01*
G01X22002Y23999D01*
G01X21992Y24018D01*
G01X21982Y24036D01*
G01X21972Y24053D01*
G01X21963Y24069D01*
G01X21955Y24085D01*
G01X21947Y24100D01*
G01X21939Y24114D01*
G01X21932Y24127D01*
G01X21926Y24140D01*
G01X21919Y24151D01*
G01X21914Y24163D01*
G01X21908Y24173D01*
G01X21903Y24182D01*
G01X21899Y24191D01*
G01X21895Y24200D01*
G01X21892Y24207D01*
G01X21888Y24214D01*
G01X21885Y24221D01*
G01X21883Y24226D01*
G01X21881Y24232D01*
G01X21879Y24236D01*
G01X21878Y24240D01*
G01X21877Y24243D01*
G01X21876Y24246D01*
G01X21876Y24248D01*
G01X21876Y24250D01*
G01X21877Y24251D01*
G01X21882Y24257D01*
G01X21890Y24264D01*
G01X21902Y24273D01*
G01X21918Y24282D01*
G01X21936Y24292D01*
G01X21957Y24304D01*
G01X21980Y24316D01*
G01X22005Y24329D01*
G01X22031Y24342D01*
G01X22060Y24355D01*
G01X22089Y24369D01*
G01X22119Y24383D01*
G01X22150Y24397D01*
G01X22182Y24411D01*
G01X22213Y24424D01*
G01X22244Y24436D01*
G01X22275Y24449D01*
G01X22305Y24460D01*
G01X22334Y24471D01*
G01X22362Y24481D01*
G01X22382Y24488D01*
G01X22403Y24494D01*
G01X22425Y24501D01*
G01X22446Y24507D01*
G01X22468Y24514D01*
G01X22489Y24520D01*
G01X22512Y24526D01*
G01X22534Y24532D01*
G01X22557Y24537D01*
G01X22580Y24542D01*
G01X22602Y24548D01*
G01X22626Y24553D01*
G01X22649Y24558D01*
G01X22672Y24563D01*
G01X22696Y24567D01*
G01X22720Y24572D01*
G01X22744Y24576D01*
G01X22768Y24580D01*
G01X22793Y24584D01*
G01X22817Y24588D01*
G01X22841Y24591D01*
G01X22866Y24595D01*
G01X22890Y24598D01*
G01X22915Y24601D01*
G01X22965Y24607D01*
G01X23015Y24611D01*
G01X23065Y24615D01*
G01X23090Y24617D01*
G01X23115Y24619D01*
G01X23140Y24620D01*
G01X23165Y24621D01*
G01X23190Y24622D01*
G01X23215Y24623D01*
G01X23240Y24624D01*
G01X23265Y24624D01*
G01X23290Y24624D01*
G01X23315Y24625D01*
G01X23340Y24624D01*
G01X23365Y24624D01*
G01X23389Y24623D01*
G01X23414Y24623D01*
G01X23463Y24621D01*
G01X23487Y24619D01*
G01X23535Y24616D01*
G01X23583Y24612D01*
G01X23606Y24610D01*
G01X23627Y24607D01*
G01X23649Y24604D01*
G01X23673Y24601D01*
G01X23698Y24596D01*
G01X23725Y24592D01*
G01X23752Y24587D01*
G01X23781Y24581D01*
G01X23809Y24576D01*
G01X23838Y24569D01*
G01X23896Y24556D01*
G01X23925Y24549D01*
G01X23952Y24542D01*
G01X23980Y24535D01*
G01X24006Y24528D01*
G01X24031Y24521D01*
G01X24060Y24512D01*
G01X24089Y24503D01*
G01X24119Y24493D01*
G01X24149Y24483D01*
G01X24180Y24472D01*
G01X24210Y24461D01*
G01X24241Y24450D01*
G01X24271Y24439D01*
G01X24301Y24427D01*
G01X24330Y24415D01*
G01X24359Y24404D01*
G01X24388Y24392D01*
G01X24415Y24380D01*
G01X24442Y24369D01*
G01X24467Y24357D01*
G01X24492Y24346D01*
G01X24515Y24335D01*
G01X24537Y24324D01*
G01X24557Y24314D01*
G01X24576Y24304D01*
G01X24593Y24294D01*
G01X24607Y24286D01*
G01X24621Y24277D01*
G01X24631Y24270D01*
G01X24640Y24263D01*
G01X24647Y24256D01*
G01X24651Y24251D01*
G01X24652Y24246D01*
G01X24651Y24244D01*
G01X24650Y24241D01*
G01X24647Y24236D01*
G01X24644Y24228D01*
G01X24639Y24220D01*
G01X24634Y24209D01*
G01X24628Y24198D01*
G01X24621Y24184D01*
G01X24613Y24169D01*
G01X24604Y24153D01*
G01X24594Y24136D01*
G01X24584Y24117D01*
G01X24573Y24097D01*
G01X24562Y24076D01*
G01X24550Y24054D01*
G01X24537Y24031D01*
G01X24523Y24007D01*
G01X24510Y23982D01*
G01X24495Y23955D01*
G01X24480Y23929D01*
G01X24465Y23901D01*
G01X24449Y23873D01*
G01X24433Y23844D01*
G01X24417Y23814D01*
G01X24400Y23784D01*
G01X24383Y23753D01*
G01X24365Y23722D01*
G01X24348Y23690D01*
G01X24330Y23659D01*
G01X24312Y23627D01*
G01X24294Y23594D01*
G01X24276Y23561D01*
G01X24257Y23529D01*
G01X24220Y23463D01*
G01X24184Y23398D01*
G01X24165Y23365D01*
G01X24147Y23333D01*
G01X24129Y23301D01*
G01X24111Y23269D01*
G01X24093Y23238D01*
G01X24076Y23207D01*
G01X24059Y23177D01*
G01X24042Y23147D01*
G01X24025Y23118D01*
G01X24009Y23089D01*
G01X23993Y23061D01*
G01X23977Y23034D01*
G01X23962Y23007D01*
G01X23948Y22982D01*
G01X23934Y22957D01*
G01X23920Y22934D01*
G01X23907Y22911D01*
G01X23894Y22889D01*
G01X23883Y22869D01*
G01X23872Y22850D01*
G01X23861Y22832D01*
G01X23851Y22815D01*
G01X23842Y22800D01*
G01X23834Y22786D01*
G01X23827Y22773D01*
G01X23820Y22762D01*
G01X23814Y22753D01*
G01X23810Y22745D01*
G01X23806Y22738D01*
G01X23803Y22734D01*
G01X23801Y22732D01*
G37*

%LPC*%

%LPD*%
G54D11*
G01X15250Y8688D02*
G01X10319Y13619D01*
G01X8915Y28998D02*
G01X7915Y28000D01*
G01X7600Y28000D01*
G01X12800Y34800D02*
G01X12800Y32884D01*
G01X8915Y28998D01*
G01X2400Y9113D02*
G01X2400Y6636D01*
G01X6115Y2921D01*
G01X7600Y27000D02*
G01X10152Y29553D01*
G01X10152Y29611D01*
G01X9019Y31644D02*
G01X9448Y31215D01*
G01X10515Y31215D01*
G01X844Y24930D02*
G01X844Y24755D01*
G01X1600Y24000D01*
G01X10034Y37400D02*
G01X8494Y35859D01*
G01X8494Y29361D01*
G01X10650Y37400D02*
G01X10034Y37400D01*
G01X6757Y5409D02*
G01X6471Y5409D01*
G01X5900Y5980D01*
G01X7900Y5980D02*
G01X7328Y5409D01*
G01X6757Y5409D01*
G01X6758Y5409D02*
G01X7057Y5409D01*
G01X7057Y4996D01*
G01X13500Y5980D02*
G01X11900Y6000D01*
G01X423Y15876D01*
G01X423Y25105D01*
G01X1317Y26000D01*
G01X1600Y26000D01*
G01X15500Y5980D02*
G01X13500Y5980D01*
G01X1600Y22000D02*
G01X907Y21307D01*
G01X900Y16400D01*
G01X11447Y7051D01*
G01X20027Y7051D01*
G01X21100Y5980D01*
G01X23100Y5980D02*
G01X21100Y5980D01*
G54D12*
G01X23100Y1057D02*
G01X21100Y1057D01*
G01X26389Y8569D02*
G01X26400Y8569D01*
G01X26400Y4357D01*
G01X23100Y1057D01*
G01X15500Y1057D02*
G01X21100Y1057D01*
G01X13500Y1057D02*
G01X15500Y1057D01*
G01X7900Y1057D02*
G01X13500Y1057D01*
G01X5900Y1057D02*
G01X7900Y1057D01*
G01X20000Y9500D02*
G01X19960Y9500D01*
G01X25501Y9500D01*
G01X26348Y8650D01*
G01X26389Y8569D01*
G54D11*
G01X26268Y8569D02*
G01X26389Y8569D01*
G01X19350Y8550D02*
G01X19960Y9159D01*
G54D12*
G01X19900Y9500D02*
G01X19900Y9500D01*
G01X16300Y13098D01*
G01X16300Y14500D01*
G54D11*
G01X24600Y33600D02*
G01X21100Y33600D01*
G01X18800Y31300D01*
G54D12*
G01X3000Y2400D02*
G01X4557Y2400D01*
G01X5900Y1057D01*
G54D11*
G01X2600Y20000D02*
G01X5130Y17469D01*
G01X14889Y17469D01*
G54D12*
G01X15889Y17469D02*
G01X18300Y15059D01*
G01X18300Y14500D01*
G54D11*
G01X7600Y21000D02*
G01X9700Y21000D01*
G01X16800Y28100D01*
G01X16800Y34800D01*
G01X7600Y20000D02*
G01X9500Y20000D01*
G01X17400Y27900D01*
G01X17400Y32877D01*
G01X17800Y33523D01*
G01X17800Y34800D01*
G01X5600Y20000D02*
G01X7294Y18305D01*
G01X18393Y18305D01*
G01X20300Y17200D01*
G01X20300Y12900D01*
G01X22900Y11100D01*
G01X25389Y11069D01*
G01X7600Y25000D02*
G01X13400Y31000D01*
G01X13400Y32500D01*
G01X13800Y32865D01*
G01X13800Y34800D01*
G01X7600Y22000D02*
G01X16100Y30700D01*
G01X16100Y32200D01*
G01X15800Y33026D01*
G01X15800Y34800D01*
G01X7600Y24000D02*
G01X8213Y24000D01*
G01X13781Y29569D01*
G01X14789Y30109D01*
G01X15500Y30900D01*
G01X15500Y32201D01*
G01X14800Y32898D01*
G01X14800Y34800D01*
G01X11750Y37400D02*
G01X11750Y36744D01*
G01X11750Y36744D02*
G01X11800Y36694D01*
G01X11800Y34800D01*
G01X2500Y4800D02*
G01X2500Y5300D01*
G01X2200Y5300D01*
G01X1400Y6100D01*
G01X1400Y12400D01*
G01X1400Y12400D02*
G01X1400Y13600D01*
G01X2800Y16800D02*
G01X5300Y16800D01*
G01X19960Y9159D02*
G01X19960Y9459D01*
G01X20000Y9500D01*
G54D18*
G01X10650Y37400D03*
G01X11750Y37400D03*
G54D21*
G01X21100Y5980D03*
G01X21100Y1057D03*
G01X23100Y5980D03*
G01X23100Y1057D03*
G01X13500Y5980D03*
G01X13500Y1057D03*
G01X15500Y5980D03*
G01X15500Y1057D03*
G01X5900Y5980D03*
G01X5900Y1057D03*
G01X7900Y5980D03*
G01X7900Y1057D03*
G54D22*
G01X17800Y34800D03*
G01X16800Y34800D03*
G01X15800Y34800D03*
G01X14800Y34800D03*
G01X13800Y34800D03*
G01X11800Y34800D03*
G01X12800Y34800D03*
G01X10800Y34800D03*
G54D23*
G01X2400Y9113D03*
G01X2400Y10686D03*
G54D24*
G01X25389Y11069D03*
G01X26389Y11069D03*
G54D25*
G01X18800Y31300D03*
G01X14580Y31300D03*
G01X14580Y27559D03*
G01X18800Y27559D03*
G54D24*
G01X25389Y8569D03*
G01X26389Y8569D03*
G54D22*
G01X27200Y31400D03*
G01X27200Y2400D03*
G54D26*
G01X18300Y14500D03*
G01X16300Y14500D03*
G01X24600Y33600D03*
G01X24600Y29600D03*
G54D22*
G01X1200Y2400D03*
G01X3000Y2400D03*
G54D24*
G01X14889Y17469D03*
G01X15889Y17469D03*
G54D27*
G01X1600Y31000D03*
G01X1600Y30000D03*
G01X1600Y29000D03*
G01X1600Y28000D03*
G01X1600Y27000D03*
G01X1600Y26000D03*
G01X1600Y25000D03*
G01X1600Y24000D03*
G01X1600Y23000D03*
G01X1600Y22000D03*
G01X1600Y21000D03*
G01X1600Y20000D03*
G01X7600Y20000D03*
G01X7600Y21000D03*
G01X7600Y22000D03*
G01X7600Y23000D03*
G01X7600Y24000D03*
G01X7600Y25000D03*
G01X7600Y26000D03*
G01X7600Y27000D03*
G01X7600Y28000D03*
G01X7600Y29000D03*
G01X7600Y30000D03*
G01X7600Y31000D03*
G01X5600Y20000D03*
G01X6600Y20000D03*
G01X4600Y20000D03*
G01X3600Y20000D03*
G01X2100Y32000D03*
G01X3100Y32000D03*
G01X4100Y32000D03*
G01X5100Y32000D03*
G01X6100Y32000D03*
G01X7100Y32000D03*
G01X2600Y20000D03*
G54D26*
G01X1500Y4800D03*
G01X2500Y4800D03*
G54D14*
G01X15250Y8688D03*
G01X10319Y13619D03*
G01X8915Y28998D03*
G01X6115Y2921D03*
G01X10152Y29611D03*
G01X844Y24930D03*
G01X9019Y31644D03*
G01X10515Y31215D03*
G01X8494Y29361D03*
G01X7057Y4996D03*
G54D15*
G01X1400Y13600D03*
G01X2800Y16800D03*
G01X5300Y16800D03*
G54D28*
G01X19546Y8550D02*
G01X19153Y8550D01*
G01X19546Y8050D02*
G01X19153Y8050D01*
G01X19546Y7550D02*
G01X19153Y7550D01*
M00*
M02*
