G04 ---------------------------- Layer name :BOTTOM SOLDER LAYER*
G04 EasyEDA v5.8.20, Wed, 21 Nov 2018 13:10:04 GMT*
G04 3d86466828e248bea5d0288c5f419d97*
G04 Gerber Generator version 0.2*
G04 Scale: 100 percent, Rotated: No, Reflected: No *
G04 Dimensions in inches *
G04 leading zeros omitted , absolute positions ,2 integer and 4 decimal *
%FSLAX24Y24*%
%MOIN*%
G90*
G70D02*

%ADD34C,0.047370*%
%ADD35C,0.094614*%
%ADD36R,0.070000X0.070000*%
%ADD37C,0.070992*%
%ADD40R,0.071000X0.078900*%
%ADD41C,0.055000*%
%ADD42C,0.078900*%
%ADD43C,0.068000*%
%ADD45C,0.082000*%

%LPD*%
G54D34*
G01X19547Y8550D02*
G01X19152Y8550D01*
G01X19547Y8050D02*
G01X19152Y8050D01*
G01X19547Y7550D02*
G01X19152Y7550D01*
G54D35*
G01X21100Y5980D03*
G01X21100Y1057D03*
G01X23100Y5980D03*
G01X23100Y1057D03*
G01X13500Y5980D03*
G01X13500Y1057D03*
G01X15500Y5980D03*
G01X15500Y1057D03*
G01X5900Y5980D03*
G01X5900Y1057D03*
G01X7900Y5980D03*
G01X7900Y1057D03*
G54D36*
G01X17800Y34800D03*
G01X16800Y34800D03*
G01X15800Y34800D03*
G01X14800Y34800D03*
G01X13800Y34800D03*
G01X11800Y34800D03*
G01X12800Y34800D03*
G01X10800Y34800D03*
G54D40*
G01X10650Y37400D03*
G01X11750Y37400D03*
G54D37*
G01X2400Y9113D03*
G01X2400Y10686D03*
G54D41*
G01X25389Y11069D03*
G01X26389Y11069D03*
G54D42*
G01X18800Y31300D03*
G01X14580Y31300D03*
G01X14580Y27559D03*
G01X18800Y27559D03*
G54D41*
G01X25389Y8569D03*
G01X26389Y8569D03*
G54D36*
G01X27200Y31400D03*
G01X27200Y2400D03*
G54D43*
G01X18300Y14500D03*
G01X16300Y14500D03*
G01X24600Y33600D03*
G01X24600Y29600D03*
G54D36*
G01X1200Y2400D03*
G01X3000Y2400D03*
G54D41*
G01X14889Y17469D03*
G01X15889Y17469D03*
G54D45*
G01X1600Y31000D03*
G01X1600Y30000D03*
G01X1600Y29000D03*
G01X1600Y28000D03*
G01X1600Y27000D03*
G01X1600Y26000D03*
G01X1600Y25000D03*
G01X1600Y24000D03*
G01X1600Y23000D03*
G01X1600Y22000D03*
G01X1600Y21000D03*
G01X1600Y20000D03*
G01X7600Y20000D03*
G01X7600Y21000D03*
G01X7600Y22000D03*
G01X7600Y23000D03*
G01X7600Y24000D03*
G01X7600Y25000D03*
G01X7600Y26000D03*
G01X7600Y27000D03*
G01X7600Y28000D03*
G01X7600Y29000D03*
G01X7600Y30000D03*
G01X7600Y31000D03*
G01X5600Y20000D03*
G01X6600Y20000D03*
G01X4600Y20000D03*
G01X3600Y20000D03*
G01X2100Y32000D03*
G01X3100Y32000D03*
G01X4100Y32000D03*
G01X5100Y32000D03*
G01X6100Y32000D03*
G01X7100Y32000D03*
G01X2600Y20000D03*
G54D43*
G01X1500Y4800D03*
G01X2500Y4800D03*
M00*
M02*
