G04 ---------------------------- Layer name :TOP PASTER LAYER*
G04 EasyEDA v5.8.20, Wed, 21 Nov 2018 13:10:04 GMT*
G04 3d86466828e248bea5d0288c5f419d97*
G04 Gerber Generator version 0.2*
G04 Scale: 100 percent, Rotated: No, Reflected: No *
G04 Dimensions in inches *
G04 leading zeros omitted , absolute positions ,2 integer and 4 decimal *
%FSLAX24Y24*%
%MOIN*%
G90*
G70D02*

%ADD16R,0.070900X0.063000*%
%ADD17R,0.027559X0.049213*%
%ADD18R,0.063000X0.070900*%
%ADD19R,0.050000X0.057900*%
%ADD20R,0.049213X0.027559*%

%LPD*%
G54D16*
G01X6799Y4050D03*
G01X6799Y2950D03*
G01X14499Y4150D03*
G01X14499Y3050D03*
G01X22099Y4150D03*
G01X22099Y3050D03*
G54D17*
G01X12400Y24892D03*
G01X12773Y23907D03*
G01X12026Y23907D03*
G54D18*
G01X26450Y21100D03*
G01X25350Y21100D03*
G01X26450Y13100D03*
G01X25350Y13100D03*
G01X26450Y16400D03*
G01X25350Y16400D03*
G01X22850Y19599D03*
G01X23950Y19599D03*
G01X26450Y19600D03*
G01X25350Y19600D03*
G01X26450Y18000D03*
G01X25350Y18000D03*
G01X22850Y21099D03*
G01X23950Y21099D03*
G01X26450Y14900D03*
G01X25350Y14900D03*
G01X22850Y17999D03*
G01X23950Y17999D03*
G01X22850Y16399D03*
G01X23950Y16399D03*
G01X22850Y14899D03*
G01X23950Y14899D03*
G01X22850Y13099D03*
G01X23950Y13099D03*
G01X21750Y7499D03*
G01X22850Y7499D03*
G54D16*
G01X21499Y10450D03*
G01X21499Y9350D03*
G54D18*
G01X16350Y8000D03*
G01X15250Y8000D03*
G54D16*
G01X16100Y10050D03*
G01X16100Y11150D03*
G01X13400Y20650D03*
G01X13400Y21750D03*
G01X11400Y20650D03*
G01X11400Y21750D03*
G54D18*
G01X11850Y8900D03*
G01X10750Y8900D03*
G01X14850Y19399D03*
G01X15950Y19399D03*
G54D19*
G01X23250Y23399D03*
G01X24869Y23399D03*
G54D20*
G01X3692Y14526D03*
G01X2707Y14900D03*
G01X3692Y15273D03*
G54D16*
G01X6299Y15350D03*
G01X6299Y14250D03*
G01X6300Y12450D03*
G01X6300Y11350D03*
G01X27000Y27250D03*
G01X27000Y28350D03*
G01X27001Y24350D03*
G01X27001Y25450D03*
M00*
M02*
