;PTH Drill file created by EasyEDA 
M48
INCH,LZ,00.0000
;Holesize 1 = 0.012 INCH
T01C0.012
;Holesize 2 = 0.028 INCH
T02C0.028
;Holesize 3 = 0.028 INCH
T03C0.028
;Holesize 4 = 0.035 INCH
T04C0.035
;Holesize 5 = 0.036 INCH
T05C0.036
;Holesize 6 = 0.039 INCH
T06C0.039
;Holesize 7 = 0.040 INCH
T07C0.040
;Holesize 8 = 0.059 INCH
T08C0.059
%
G05
G90
T01
X+015250Y+008688
X+010319Y+013619
X+008915Y+028998
X+006115Y+002921
X+010152Y+029611
X+000844Y+024930
X+009019Y+031644
X+010515Y+031215
X+008494Y+029361
X+007057Y+004996
X+001400Y+013600
X+002800Y+016800
X+005300Y+016800
T02
X+019350Y+008550
X+019350Y+008050
X+019350Y+007550
T03
X+025389Y+011069
X+026389Y+011069
X+025389Y+008569
X+026389Y+008569
X+014889Y+017469
X+015889Y+017469
T04
X+017800Y+034800
X+016800Y+034800
X+015800Y+034800
X+014800Y+034800
X+013800Y+034800
X+011800Y+034800
X+012800Y+034800
X+010800Y+034800
X+027200Y+031400
X+027200Y+002400
X+001200Y+002400
X+003000Y+002400
T05
X+018300Y+014500
X+016300Y+014500
X+024600Y+033600
X+024600Y+029600
X+001500Y+004800
X+002500Y+004800
T06
X+002400Y+009113
X+002400Y+010686
T07
X+018800Y+031300
X+014580Y+031300
X+014580Y+027559
X+018800Y+027559
X+001600Y+031000
X+001600Y+030000
X+001600Y+029000
X+001600Y+028000
X+001600Y+027000
X+001600Y+026000
X+001600Y+025000
X+001600Y+024000
X+001600Y+023000
X+001600Y+022000
X+001600Y+021000
X+001600Y+020000
X+007600Y+020000
X+007600Y+021000
X+007600Y+022000
X+007600Y+023000
X+007600Y+024000
X+007600Y+025000
X+007600Y+026000
X+007600Y+027000
X+007600Y+028000
X+007600Y+029000
X+007600Y+030000
X+007600Y+031000
X+005600Y+020000
X+006600Y+020000
X+004600Y+020000
X+003600Y+020000
X+002100Y+032000
X+003100Y+032000
X+004100Y+032000
X+005100Y+032000
X+006100Y+032000
X+007100Y+032000
X+002600Y+020000
T08
X+021100Y+005980
X+021100Y+001057
X+023100Y+005980
X+023100Y+001057
X+013500Y+005980
X+013500Y+001057
X+015500Y+005980
X+015500Y+001057
X+005900Y+005980
X+005900Y+001057
X+007900Y+005980
X+007900Y+001057
M30
